<svg xmlns="http://www.w3.org/2000/svg" viewBox="0 0 548 226">
<g opacity="0.3">
	<path fill-rule="evenodd" clip-rule="evenodd" fill="#7BD2F5" d="M352.94,48.75v52.66h-4.64V70.2h-31.05v25.14h-3.91V31.98
		l-29.2,19.54v27.51h-4.52V31.98c0,0,2.47-29.98-30.23-29.98v66.07h-6.37v-30.4l-25.5-11.38v29.69h-11.52V44.5h-17.48v-3.42h-8.22
		v45.53h-9.67V8.26h-8.64V2h-7.81v6.83h-11.1v31.49h-6.58V18.89l-28.17,13.85v58.43H99.7V54.17L83.97,39.66v37.66h-5.24V54.17H52.62
		V94.2h-7.2L26.69,76.92h-15.2v70.67H11V228h370V74.64L352.94,48.75z"/>
	<g>
		<path fill-rule="evenodd" clip-rule="evenodd" fill="#5BBBEA" d="M143.35,96v77.71h-15.3v-27.44h4.51l-13.96-14.07H87.82
			l-14.29,14.4h4.3v20H66.48v-31.57l-8.1-14.1H41.37l-8.97,14.7v45.66h-7.65v-19.64H0V226h283v-84.22h-17.69l-17.34,17.47v14.94
			h-15.78v-26.15h3.7l-6.57-11.81h-6.46v-7.71h2.03v-2.41h-11.96v3.01h2.27v6.75h-18.29l-8.37,12.41h3.95v37.95h-11.24v-65.9
			L143.35,96L143.35,96z M150.78,130.25h24.74v-3.89h-24.74V130.25z M150.78,142.71h24.74v-3.89h-24.74V142.71z M55.67,145.04h5.41
			v-5.45h-5.41V145.04z M46.39,145.04h5.41v-5.45h-5.41V145.04z M37.11,145.04h5.41v-5.45h-5.41V145.04z M112.12,160.61h6.96V146.6
			h-6.96V160.61z M98.2,160.61h6.96V146.6H98.2V160.61z M85.05,160.61h6.96V146.6h-6.96L85.05,160.61L85.05,160.61z M55.67,154.38
			h5.41v-5.45h-5.41V154.38L55.67,154.38z M46.39,154.38h5.41v-5.45h-5.41V154.38L46.39,154.38z M37.11,154.38h5.41v-5.45h-5.41
			V154.38L37.11,154.38z M218.05,159.83h7.73v-7.79h-7.73V159.83L218.05,159.83z M197.94,159.83h7.73v-7.79h-7.73V159.83
			L197.94,159.83z M150.78,155.16h24.74v-3.89h-24.74V155.16z M55.67,162.95h5.41v-5.45h-5.41V162.95L55.67,162.95z M46.39,162.95
			h5.41v-5.45h-5.41V162.95L46.39,162.95z M37.11,162.95h5.41v-5.45h-5.41V162.95L37.11,162.95z M55.67,171.51h5.41v-5.45h-5.41
			V171.51z M46.39,171.51h5.41v-5.45h-5.41V171.51z M37.11,171.51h5.41v-5.45h-5.41V171.51z M55.67,181.63h5.41v-5.45h-5.41V181.63z
			 M46.39,181.63h5.41v-5.45h-5.41V181.63z M37.11,181.63h5.41v-5.45h-5.41V181.63z"/>
		<path fill-rule="evenodd" clip-rule="evenodd" fill="#5BBBEA" d="M404.65,96v77.71h15.3v-27.44h-4.51l13.96-14.07h30.79
			l14.29,14.4h-4.3v20h11.36v-31.57l8.1-14.1h17.01l8.97,14.7v45.66h7.65v-19.64H548V226H265v-84.22h17.69l17.34,17.47v14.94h15.78
			v-26.15h-3.7l6.57-11.81h6.46v-7.71h-2.03v-2.41h11.96v3.01h-2.27v6.75h18.29l8.37,12.41h-3.95v37.95h11.24v-65.9L404.65,96
			L404.65,96z M397.22,130.25h-24.74v-3.89h24.74V130.25z M397.22,142.71h-24.74v-3.89h24.74V142.71z M492.33,145.04h-5.41v-5.45
			h5.41V145.04z M501.61,145.04h-5.41v-5.45h5.41V145.04z M510.89,145.04h-5.41v-5.45h5.41V145.04z M435.88,160.61h-6.96V146.6h6.96
			V160.61z M449.8,160.61h-6.96V146.6h6.96V160.61z M462.95,160.61h-6.96V146.6h6.96L462.95,160.61L462.95,160.61z M492.33,154.38
			h-5.41v-5.45h5.41V154.38L492.33,154.38z M501.61,154.38h-5.41v-5.45h5.41V154.38L501.61,154.38z M510.89,154.38h-5.41v-5.45h5.41
			V154.38L510.89,154.38z M329.95,159.83h-7.73v-7.79h7.73V159.83L329.95,159.83z M350.06,159.83h-7.73v-7.79h7.73V159.83
			L350.06,159.83z M397.22,155.16h-24.74v-3.89h24.74V155.16z M492.33,162.95h-5.41v-5.45h5.41V162.95L492.33,162.95z
			 M501.61,162.95h-5.41v-5.45h5.41V162.95L501.61,162.95z M510.89,162.95h-5.41v-5.45h5.41V162.95L510.89,162.95z M492.33,171.51
			h-5.41v-5.45h5.41V171.51z M501.61,171.51h-5.41v-5.45h5.41V171.51z M510.89,171.51h-5.41v-5.45h5.41V171.51z M492.33,181.63
			h-5.41v-5.45h5.41V181.63z M501.61,181.63h-5.41v-5.45h5.41V181.63z M510.89,181.63h-5.41v-5.45h5.41V181.63z"/>
	</g>
</g>
</svg>
