<svg xmlns="http://www.w3.org/2000/svg" width="249" height="200" viewBox="0 0 249 200">
    <g fill="none" fill-rule="evenodd" transform="translate(1 1)">
        <ellipse cx="132.5" cy="190" fill="#D8D8D8" fill-opacity=".5" rx="80.5" ry="9"/>
        <path fill="#A5A5A5" d="M123.963 31.62c4.871 0 8.823 3.827 8.823 8.551v118.676c0 4.723-3.952 8.553-8.823 8.553-4.87 0-8.82-3.83-8.82-8.553V40.171c0-4.724 3.95-8.551 8.82-8.551"/>
        <path stroke="#5C5C5C" stroke-width="2" d="M123.963 31.62c4.871 0 8.823 3.827 8.823 8.551v118.676c0 4.723-3.952 8.553-8.823 8.553-4.87 0-8.82-3.83-8.82-8.553V40.171c0-4.724 3.95-8.551 8.82-8.551z"/>
        <path fill="#FFF" d="M172.714 163.213c0 4.878-3.795 8.837-8.479 8.837H80.908c-4.684 0-8.48-3.96-8.48-8.837s3.796-8.833 8.48-8.833h83.327c4.684 0 8.48 3.956 8.48 8.833"/>
        <path stroke="#707070" stroke-width="2" d="M172.714 163.213c0 4.878-3.795 8.837-8.479 8.837H80.908c-4.684 0-8.48-3.96-8.48-8.837s3.796-8.833 8.48-8.833h83.327c4.684 0 8.48 3.956 8.48 8.833z"/>
        <path fill="#A5A5A5" d="M193.143 177.164c0 4.88-3.822 8.836-8.536 8.836H60.536C55.82 186 52 182.044 52 177.164c0-4.875 3.82-8.834 8.536-8.834h124.071c4.714 0 8.536 3.96 8.536 8.834"/>
        <path stroke="#707070" stroke-width="2" d="M193.143 177.164c0 4.88-3.822 8.836-8.536 8.836H60.536C55.82 186 52 182.044 52 177.164c0-4.875 3.82-8.834 8.536-8.834h124.071c4.714 0 8.536 3.96 8.536 8.834z"/>
        <path fill="#CDE0DF" d="M122.571 31.62H29.714s1.73 2.053 22.421 8.785c18.322 5.962 70.436 17.255 70.436 17.255V31.62z"/>
        <path stroke="#707070" stroke-width="2" d="M122.571 31.62H29.714s1.73 2.053 22.421 8.785c18.322 5.962 70.436 17.255 70.436 17.255V31.62z"/>
        <path stroke="#707070" stroke-linecap="round" stroke-linejoin="round" stroke-width="2" d="M31.447 32.55L7.429 81.84h48.285z"/>
        <path fill="#FFC336" d="M.012 79.05h61.262s1.545 37.2-30.631 37.2c-32.177 0-30.631-37.2-30.631-37.2"/>
        <path stroke="#707070" stroke-width="2" d="M.012 79.05h61.262s1.545 37.2-30.631 37.2c-32.177 0-30.631-37.2-30.631-37.2z"/>
        <path fill="#E88D3A" d="M60.82 79.055h-6.185c-1.39 10.794-7.096 29.875-30.073 29.875-8.664 0-14.856-2.723-19.303-6.682 4.237 7.493 11.74 13.91 25.06 13.91 32.04 0 30.501-37.103 30.501-37.103"/>
        <path stroke="#707070" stroke-width="2" d="M60.82 79.055h-6.185c-1.39 10.794-7.096 29.875-30.073 29.875-8.664 0-14.856-2.723-19.303-6.682 4.237 7.493 11.74 13.91 25.06 13.91 32.04 0 30.501-37.103 30.501-37.103z"/>
        <path fill="#CDE0DF" d="M123.503 31.62h92.854s-1.73 2.053-22.422 8.785C175.616 46.367 123.5 57.66 123.5 57.66l.003-26.04z"/>
        <path stroke="#707070" stroke-width="2" d="M123.503 31.62h92.854s-1.73 2.053-22.422 8.785C175.616 46.367 123.5 57.66 123.5 57.66l.003-26.04z"/>
        <path stroke="#707070" stroke-linecap="round" stroke-linejoin="round" stroke-width="2" d="M215.552 32.55l24.02 49.29h-48.286z"/>
        <path fill="#FFC336" d="M185.726 79.05s-1.547 37.2 30.63 37.2c32.178 0 30.632-37.2 30.632-37.2h-61.262z"/>
        <path stroke="#707070" stroke-width="2" d="M246.988 79.05h-61.262s-1.547 37.2 30.63 37.2c32.178 0 30.632-37.2 30.632-37.2z"/>
        <path fill="#E88D3A" d="M185.779 79.055h6.184c1.39 10.794 7.097 29.875 30.074 29.875 8.663 0 14.855-2.723 19.302-6.682-4.236 7.493-11.742 13.91-25.06 13.91-32.039 0-30.5-37.103-30.5-37.103"/>
        <path stroke="#707070" stroke-width="2" d="M185.779 79.055h6.184c1.39 10.794 7.097 29.875 30.074 29.875 8.663 0 14.855-2.723 19.302-6.682-4.236 7.493-11.742 13.91-25.06 13.91-32.039 0-30.5-37.103-30.5-37.103z"/>
        <path fill="#BE7D28" d="M126.286 37.824c0 1.71-1.455 3.096-3.25 3.096s-3.25-1.386-3.25-3.096V10.536c0-1.708 1.455-3.096 3.25-3.096s3.25 1.388 3.25 3.096v27.288z"/>
        <path stroke="#707070" stroke-width="2" d="M126.286 37.824c0 1.71-1.455 3.096-3.25 3.096s-3.25-1.386-3.25-3.096V10.536c0-1.708 1.455-3.096 3.25-3.096s3.25 1.388 3.25 3.096v27.288z"/>
        <path fill="#CDE0DF" d="M143 42.314c0 10.53-8.523 19.066-19.036 19.066-10.512 0-19.035-8.537-19.035-19.066 0-10.527 8.523-19.064 19.035-19.064 10.513 0 19.036 8.537 19.036 19.064"/>
        <path stroke="#707070" stroke-width="2" d="M143 42.314c0 10.53-8.523 19.066-19.036 19.066-10.512 0-19.035-8.537-19.035-19.066 0-10.527 8.523-19.064 19.035-19.064 10.513 0 19.036 8.537 19.036 19.064z"/>
        <path fill="#FFC336" d="M131.857 7.904c0 4.365-3.534 7.906-7.893 7.906-4.36 0-7.893-3.541-7.893-7.906 0-4.364 3.533-7.904 7.893-7.904 4.359 0 7.893 3.54 7.893 7.904"/>
        <path stroke="#707070" stroke-width="2" d="M131.857 7.904c0 4.365-3.534 7.906-7.893 7.906-4.36 0-7.893-3.541-7.893-7.906 0-4.364 3.533-7.904 7.893-7.904 4.359 0 7.893 3.54 7.893 7.904z"/>
    </g>
</svg>
