<svg xmlns="http://www.w3.org/2000/svg" viewBox="0 0 360 145">
  <defs>
    <mask id="a" x="-34" y="0" width="394" height="361" maskUnits="userSpaceOnUse">
      <path fill="#fff" d="M0 0h360v145H0z"/>
    </mask>
  </defs>
  <g mask="url(#a)">
    <g opacity=".2" fill-rule="evenodd">
      <path d="M14.24 139.06h4.83v-5.95h-4.83zm13.09 0h4.82v-5.95h-4.82zM74 130.2h15.86v-3.7H74zm0-13.48h15.86V113H74zm0-13.49h15.86v-3.7H74zm35.92 8.77h4.82v-6h-4.82zm0-14h4.82v-5.88h-4.82zm0-15.56h4.82v-6h-4.82zm0-14h4.82v-6h-4.82zM123 112h4.83v-6H123zm0-14h4.83v-5.88H123zm0-15.56h4.83v-6H123zm0-14h4.83v-6H123zm26.17 94.36h3v-52h-3zm10.94 0h3v-52h-3zm25.16-43.8h4.82v-6h-4.82zm0-14h4.82v-6h-4.82zm13.08 14h4.83v-6h-4.83zm0-14h4.83v-6h-4.83zm24.94 5.85h15.87v-3.7h-15.87zm0-13.49h15.87v-3.7h-15.87zm0-13.48h15.87v-3.7h-15.87zm36.36 87.32h3v-52h-3zm10.94 0h3v-52h-3zm22.74 0h4.83v-5.9h-4.83zm0-13.95h4.83v-5.94h-4.83zm13.08 13.95h4.83v-5.9h-4.83zm0-13.95h4.83v-5.94h-4.83zm16.32-48.14v73.4h-4.84v-43.5H285.5v35h-4.08V85.78L251 113v38.35h-4.72V85.78S248.82 44 214.71 44v92.08h-6.65V93.71l-26.6-15.86v41.38h-12v-16h-18.25v-4.76h-8.58v63.46h-10.08V52.73h-9V44h-8.15v9.52h-11.6v43.89h-6.86V67.53L67.55 86.84v81.44h-9v-51.56L42.13 96.49V149h-5.47v-32.28H9.42v55.79H1.91l-19.54-24.08h-15.86v98.5H-34V359h386V145.24z" fill="#79d3f7"/>
      <path d="M262.63 250.49h10.77v-13.27h-10.77zm-26.9 0h10.76v-13.27h-10.76zm-64.91-50.38h33.76v-5.83h-33.76zm0 21.92h33.76v-5.83h-33.76zm0 21h33.76v-5.83h-33.76zM118 251.8h9.78v-23.33H118zm-17.62 0h9.79v-23.33h-9.79zm-17.93 0h9.78v-23.33h-9.79zm-40.74-24.94h7.83v-9.66h-7.83zm0 14.88h7.83v-9.65h-7.83zm0 14.88h7.83V247h-7.83zm0 14.88h7.83v-9.65h-7.83zm0 14.89h7.83v-9.66h-7.83zm-12.44-59.53h7.83v-9.66h-7.83zm0 14.88h7.83v-9.65h-7.83zm0 14.88h7.83V247h-7.83zm0 14.88h7.83v-9.65h-7.83zm0 14.89h7.83v-9.66h-7.83zm-12.55-59.53h7.82v-9.66h-7.82zm0 14.88h7.82v-9.65h-7.82zm0 14.88h7.82V247h-7.82zm0 14.88h7.82v-9.65h-7.82zm0 14.89h7.82v-9.66h-7.82zm311.15-66l-23.65 29.16v24.94h-21.53v-43.61h5.06l-9-19.71H270V198.3h2.78v-4h-16.34v5h3.1v11.26h-25l-11.42 20.71h5.38v63.35h-15.28v-110L161.53 144v129.72h-20.88v-45.81h6.16l-19-23.48h-42l-19.49 24h5.87v33.38H56.67v-52.65l-11-23.53H22.42l-12.23 24.54v76.22H-.24v-32.78H-34V361h386V220.42z" fill="#56bbed"/>
    </g>
  </g>
</svg>
