<svg xmlns="http://www.w3.org/2000/svg" viewBox="4.5 3.1 360 245.9">
  <g opacity=".2">
    <path fill="#79D3F7" d="M49.8 76.6h4.5V72h-4.5v4.6zm12.2 0h4.5V72H62v4.6zm43.4-6.8h14.8V67h-14.8v2.8zm0-10.4h14.8v-2.9h-14.8v2.9zm0-10.4h14.8v-2.9h-14.8V49zm33.4 6.8h4.5v-4.6h-4.5v4.6zm0-10.7h4.5v-4.6h-4.5v4.6zm0-12h4.5v-4.6h-4.5v4.6zm0-10.8h4.5v-4.6h-4.5v4.6zM151 55.8h4.5v-4.6H151v4.6zm0-10.7h4.5v-4.6H151v4.6zm0-12h4.5v-4.6H151v4.6zm0-10.8h4.5v-4.6H151v4.6zM175.3 95h2.8V54.9h-2.8V95zm10.2 0h2.8V54.9h-2.8V95zm23.4-33.8h4.5v-4.6h-4.5v4.6zm0-10.8h4.5v-4.6h-4.5v4.6zm12.2 10.8h4.5v-4.6h-4.5v4.6zm0-10.8h4.5v-4.6h-4.5v4.6zm23.2 4.5H259V52h-14.8l.1 2.9zm0-10.3H259v-2.9h-14.8l.1 2.9zm0-10.4H259v-2.9h-14.8l.1 2.9zm33.8 67.2h2.8v-40h-2.8v40zm10.2 0h2.8v-40h-2.8v40zm21.1 0h4.5v-4.6h-4.5v4.6zm0-10.7h4.5v-4.6h-4.5v4.6zm12.2 10.7h4.5v-4.6h-4.5v4.6zm0-10.7h4.5v-4.6h-4.5v4.6zm15.2-37.1v56.5h-4.5V76.6h-30.1v27h-3.8v-68l-28.3 21v29.5h-4.4V35.6s2.4-32.2-29.3-32.2v70.9h-6.2V41.7l-24.7-12.2v31.9h-11.2V49h-17v-3.7h-8v48.9h-9.4V10.1h-8.4V3.4h-7.6v7.3h-10.8v33.8h-6.4v-23L99.4 36.4v62.7H91V59.4L75.8 43.8v40.4h-5.1V59.4H45.4v43h-7L20.2 83.9H5.4v75.9H5v86.3h359V81.4l-27.2-27.8z"/>
    <path fill="#56BBED" d="M280.9 162.9h10v-10.3h-10v10.3zm-25 0h10v-10.3h-10v10.3zm-60.4-39h31.4v-4.5h-31.4v4.5zm0 17h31.4v-4.5h-31.4v4.5zm0 16.3h31.4v-4.5h-31.4v4.5zm-49.2 6.7h9.1v-18.1h-9.1v18.1zm-16.3 0h9.1v-18.1H130v18.1zm-16.7 0h9.1v-18.1h-9.1v18.1zm-37.9-19.3h7.3v-7.5h-7.3v7.5zm0 11.6h7.3v-7.5h-7.3v7.5zm0 11.5h7.3v-7.5h-7.3v7.5zm0 11.5h7.3v-7.5h-7.3v7.5zm0 11.6h7.3v-7.5h-7.3v7.5zm-11.6-46.2h7.3v-7.5h-7.3v7.5zm0 11.6h7.3v-7.5h-7.3v7.5zm0 11.5h7.3v-7.5h-7.3v7.5zm0 11.5h7.3v-7.5h-7.3v7.5zm0 11.6h7.3v-7.5h-7.3v7.5zm-11.7-46.2h7.3v-7.5h-7.3v7.5zm0 11.6h7.3v-7.5h-7.3v7.5zm0 11.5h7.3v-7.5h-7.3v7.5zm0 11.5h7.3v-7.5h-7.3v7.5zm0 11.6h7.3v-7.5h-7.3v7.5zm289.5-51.2l-22 22.6v19.3h-20v-33.8h4.7l-8.3-15.3h-8.2v-10h2.6v-3.1h-15.2v3.9h2.9v8.7h-23.2L244.2 148h5v49.1h-14.3v-85.3l-48.1-31.5v100.5h-19.4v-35.5h5.7l-17.7-18.2h-39.1l-18.1 18.6h5.5v25.9H89.3v-40.8L79 112.7H57.5l-11.4 19v59.1h-9.7v-25.4H5v83.2h359v-109h-22.4z"/>
  </g>
  <path fill="#D8D8D8" fill-opacity=".5" d="M5.5 204.2h359V249H5.5v-44.8z"/>
  <path fill="none" stroke="#FFF" stroke-dasharray="8.757" stroke-width="2.919" d="M13.3 226.5l189.1-1.6 162.2-1.3"/>
</svg>
