<svg xmlns="http://www.w3.org/2000/svg" width="154" height="206">
  <g fill="none" fill-rule="evenodd">
    <path fill="#D8D8D8" fill-opacity=".2" d="M6 161l10.78 28.588 111.958 16.375-4.362-9.205-13.398-24.852L22.936 161z"/>
    <path fill="#FFF" d="M29.843 1.367L2.308 157.526l15.051 21.37 104.886 18.278 30.699-174.1z"/>
    <path stroke="#707070" stroke-linecap="round" stroke-linejoin="round" stroke-width="2" d="M122.245 197.172L17.36 178.897 2.308 157.525 29.843 1.367l123.1 21.706z"/>
    <path fill="#D5DADB" d="M1.32 156.37l15.411 22.011 3.3-18.711z"/>
    <path stroke="#707070" stroke-linecap="round" stroke-linejoin="round" stroke-width="2" d="M1.32 156.37l15.411 22.011 3.3-18.711zM50.799 27.75l35.453 6.251m-35.453-.251l35.453 6.251m-36.453.749l35.453 6.251m-37.453-.251l35.453 6.251m-37.18 11.623l70.906 12.503m-72.906-4.503l70.906 12.503m-72.906-5.503l70.906 12.503m-76.906 27.497l70.906 12.503m-72.906-4.503l70.906 12.503m-72.906-5.503l70.906 12.503"/>
    <path fill="#FFBF4D" stroke="#707070" stroke-width="2" d="M36.833 109.325l3.214-17.198 47.813 9.085-2.608 16.804z"/>
  </g>
</svg>
