<svg xmlns="http://www.w3.org/2000/svg" xmlns:xlink="http://www.w3.org/1999/xlink" width="263" height="166" viewBox="0 0 263 166">
    <defs>
        <path id="a" d="M0 .118h262.583V166H0z"/>
    </defs>
    <g fill="none" fill-rule="evenodd">
        <path fill="#B3B3B3" d="M16 141h137V30H16z"/>
        <g>
            <mask id="b" fill="#fff">
                <use xlink:href="#a"/>
            </mask>
            <path fill="#707070" d="M17.556 140.487h134.155V31.443H17.556v109.044zm135.45 2.593H16.261a1.297 1.297 0 0 1-1.296-1.297V30.147c0-.716.58-1.297 1.296-1.297h136.745c.717 0 1.296.581 1.296 1.297v111.636c0 .716-.58 1.297-1.296 1.297z" mask="url(#b)"/>
            <path fill="#707070" d="M153.005 131.201H16.261a1.296 1.296 0 0 0 0 2.594h136.744a1.296 1.296 0 1 0 0-2.594M153.005 121.91H16.261a1.296 1.296 0 1 0 0 2.594h136.744a1.296 1.296 0 0 0 0-2.594M153.005 112.618H16.261a1.296 1.296 0 0 0 0 2.594h136.744a1.296 1.296 0 1 0 0-2.594M153.005 103.327H16.261a1.296 1.296 0 1 0 0 2.594h136.744a1.296 1.296 0 0 0 0-2.594M153.005 94.035H16.261a1.296 1.296 0 1 0 0 2.594h136.744a1.296 1.296 0 0 0 0-2.594M153.005 84.743H16.261a1.296 1.296 0 0 0 0 2.594h136.744a1.296 1.296 0 1 0 0-2.594M153.005 75.452H16.261a1.296 1.296 0 1 0 0 2.594h136.744a1.296 1.296 0 0 0 0-2.594M153.005 66.16H16.261a1.296 1.296 0 0 0 0 2.593h136.744a1.296 1.296 0 0 0 0-2.594M153.005 56.868H16.261a1.296 1.296 0 0 0 0 2.593h136.744a1.296 1.296 0 0 0 0-2.593M153.005 47.576H16.261a1.296 1.296 0 0 0 0 2.594h136.744a1.296 1.296 0 0 0 0-2.594M16.261 40.878h136.744a1.296 1.296 0 0 0 0-2.593H16.261a1.296 1.296 0 0 0 0 2.593" mask="url(#b)"/>
            <path fill="#F1F1F1" d="M150.098 48.869l-28.135 22.436C82.161 53.95 51.872 48.869 51.872 48.869h98.226zM115.148 132.498L95.3 154.934c-28.1-17.355-49.473-22.436-49.473-22.436h69.321zM92.48 95.326l-22.494 4.777a576.873 576.873 0 0 0-66.028 18.181l-2.663.912 14.961-23.87h76.223z" mask="url(#b)"/>
            <path fill="#707070" d="M63.942 50.165c12.37 3.026 33.354 9.03 57.822 19.639l24.627-19.639h-82.45zm58.021 22.436c-.176 0-.352-.036-.518-.107C82.267 55.41 51.958 50.198 51.658 50.147a1.295 1.295 0 0 1-1.078-1.386 1.294 1.294 0 0 1 1.29-1.19h98.227a1.296 1.296 0 0 1 .807 2.312l-28.135 22.436a1.288 1.288 0 0 1-.806.282zM54.449 133.795c8.683 3.002 23.412 8.959 40.601 19.465l17.22-19.465H54.449zm40.85 22.436c-.233 0-.469-.064-.68-.193-27.57-17.028-48.88-22.227-49.093-22.278a1.296 1.296 0 0 1 .302-2.559h69.32a1.297 1.297 0 0 1 .97 2.157L96.27 155.794a1.293 1.293 0 0 1-.97.437zM16.972 96.623L4.334 116.788c21.223-7.2 43.216-13.238 65.382-17.953l10.415-2.212H16.972zm-15.677 23.87a1.297 1.297 0 0 1-1.096-1.986l14.962-23.87c.234-.379.65-.608 1.095-.608h76.222a1.297 1.297 0 1 1 .27 2.567l-22.493 4.776c-22.345 4.753-44.51 10.856-65.88 18.14l-2.66.912a1.294 1.294 0 0 1-.42.069z" mask="url(#b)"/>
            <path fill="#E6E6E6" d="M153.003 30.144H16.269S90.867 16.527 66.692 1.42l76.439 23.81s3.211-15.588 8.473-15.588l.414.039c.324.039.648.155.985.324 6.102 3.125 0 20.14 0 20.14" mask="url(#b)"/>
            <path fill="#707070" d="M28.866 28.847C45.061 25.125 70.96 17.798 72.71 8.668c.285-1.478-.015-2.905-.896-4.293l28.555 8.897 42.378 13.19c.064.012.13.038.195.051a1.282 1.282 0 0 0 .84-.169c.325-.181.545-.492.611-.855.233-1.103.517-2.296.868-3.528.233-.804.493-1.634.765-2.451 1.502-4.461 3.562-8.572 5.454-8.572h.076l.311.026c.013 0 .013 0 .026.012h.026c.13.026.298.091.492.182 3.539 1.816 1.764 11.451-.335 17.69H28.866zM153.58 8.85a4.235 4.235 0 0 0-1.44-.467l-.414-.026-.117-.013h-.013c-1.503 0-2.823.869-3.977 2.217-.362.428-.724.908-1.061 1.427-.156.246-.311.506-.455.765-.155.273-.31.545-.452.83-.13.234-.248.467-.364.713-.687 1.427-1.268 2.944-1.748 4.397-.13.389-.247.765-.364 1.128a60.12 60.12 0 0 0-1.01 3.748L79.108 3.921h-.024L67.073.174c-.065-.013-.117-.04-.18-.04-.065-.012-.117-.012-.183-.012a.846.846 0 0 0-.362.052c-.064.012-.116.038-.182.064a.422.422 0 0 0-.155.078c-.051.04-.103.078-.155.117a.415.415 0 0 0-.13.13c-.038.038-.077.077-.105.13a1.275 1.275 0 0 0-.181 1.05 1.19 1.19 0 0 0 .298.544l.039.04a.87.87 0 0 0 .207.168c0 .013.013.013.027.026 3.097 1.945 4.496 3.852 4.145 5.667-.48 2.516-4.69 7.743-27.517 14.37-13.28 3.864-26.47 6.29-26.598 6.315a1.285 1.285 0 0 0-1.063 1.388c.065.674.623 1.18 1.295 1.18h136.734a1.3 1.3 0 0 0 1.22-.856c.66-1.854 6.282-18.195-.648-21.735z" mask="url(#b)"/>
            <path fill="#707070" d="M147.618 10.561a14.06 14.06 0 0 0-1.06 1.427 14.87 14.87 0 0 0-.456.765c-.155.272-.31.545-.453.83-.13.234-.246.467-.363.713-.687 1.427-1.268 2.944-1.748 4.397-.13.389-.247.765-.364 1.128-.44 1.44-.776 2.75-1.01 3.748L79.109 3.921l68.51 6.64zm4.107-2.204l-.117-.013h-.012L66.89.134l-.077-.012h-.104a.843.843 0 0 0-.361.051c-.065.013-.117.04-.183.065a.422.422 0 0 0-.154.078l-.156.117a.415.415 0 0 0-.13.13c-.038.038-.078.077-.104.13a.883.883 0 0 0-.104.18c-.052.091-.078.182-.104.286-.007.048-.005.09-.009.136 0 .01 0 .02-.002.029-.008.145 0 .288.037.419a1.19 1.19 0 0 0 .298.544l.04.04a.87.87 0 0 0 .206.168c0 .013.013.013.028.026.09.052.193.103.296.13L69.6 3.674l30.77 9.597 42.378 13.202c.052.013.13.039.195.039.064.013.129.013.193.013.22 0 .455-.065.648-.182.324-.181.544-.492.61-.856.232-1.102.517-2.295.869-3.527.231-.804.492-1.634.764-2.451 1.503-4.423 3.563-8.482 5.518-8.573h.064c.61 0 1.128-.428 1.244-1.011a.58.58 0 0 0 .04-.22 1.287 1.287 0 0 0-1.167-1.35z" mask="url(#b)"/>
            <path fill="#D1D2D4" d="M147.618 10.561a14.06 14.06 0 0 0-1.06 1.427 14.87 14.87 0 0 0-.456.765c-.155.272-.31.545-.453.83-.13.234-.246.48-.363.713-.687 1.427-1.268 2.944-1.748 4.397-.13.389-.247.765-.364 1.128-.44 1.44-.776 2.75-1.01 3.748L79.109 3.921l68.51 6.64z" mask="url(#b)"/>
            <path fill="#2F302F" d="M152.019 10.976c-.04 0-.08-.001-.122-.005l-.415-.039a1.296 1.296 0 0 1 .241-2.582l.415.038a1.297 1.297 0 0 1-.12 2.588" mask="url(#b)"/>
            <path fill="#000" fill-opacity=".1" d="M112.438 141.777l-1.592 1.8 52.777 15.068c45.3 11.836 58.517 9.078 75.79-6.052l12.956-10.68-139.931-.136z" mask="url(#b)"/>
            <path fill="#F1F1F1" d="M261.289 121.16s-28.425 31.218-54.135 39.23c-.03.014-.059.014-.073.014-.044 0-.102 0-.145-.014-.175-.029-.494-.059-.93-.103a.687.687 0 0 1-.175-.03c-7.132-1.903-.522-21.882-.522-21.882-63.693 5.73-117.639-15.963-120.56-17.156-.028-.03-.07-.03-.086-.043-.014-.015-.03-.015-.03-.015l58.464-37.194s58.202 36.889 118.192 37.194" mask="url(#b)"/>
            <path fill="#B3B3B3" d="M205.309 138.376s-6.61 19.977.522 21.882c-9.237-1.06-66.452-8.636-121.081-39.039 2.92 1.192 56.866 22.886 120.559 17.157" mask="url(#b)"/>
            <path fill="#707070" d="M207.08 161.7c-.074 0-.223 0-.402-.037-.126-.02-.325-.038-.579-.062l-.221-.024a1.507 1.507 0 0 1-.36-.06 1.295 1.295 0 0 1-.944-1.572 1.29 1.29 0 0 1 1.57-.944h.003c-.004 0-.062-.01-.14-.01l.348.029c.255.025.465.047.621.065 21.145-6.69 44.454-29.56 51.339-36.672-55.096-1.379-108.494-32.826-115.206-36.915l-57.28 36.44a1.29 1.29 0 0 1-1.713.411 1.298 1.298 0 0 1-.177-2.282l58.464-37.193c.42-.269.961-.27 1.387-.001.58.367 58.591 36.692 117.504 36.992a1.298 1.298 0 0 1 .951 2.17c-1.17 1.285-28.957 31.57-54.706 39.592v-.002a1.62 1.62 0 0 1-.459.076" mask="url(#b)"/>
            <path fill="#707070" d="M100.923 128.124c43.967 21.104 86.267 28.335 101.2 30.36-2.199-4.934.168-14.5 1.38-18.652-42.91 3.503-81.532-5.372-102.58-11.708m104.91 33.43c-.05 0-.1-.002-.15-.007-10.76-1.236-67.193-8.936-121.563-39.194a1.299 1.299 0 0 1-.538-1.696 1.295 1.295 0 0 1 1.659-.639c2.28.933 56.614 22.767 119.95 17.066a1.3 1.3 0 0 1 1.347 1.7c-1.28 3.875-4.12 14.828-1.91 18.924.382.707.87 1.12 1.537 1.297a1.297 1.297 0 0 1-.332 2.55" mask="url(#b)"/>
        </g>
    </g>
</svg>
