<svg xmlns="http://www.w3.org/2000/svg" width="133" height="187">
  <g fill="none" fill-rule="evenodd">
    <path stroke="#707070" stroke-linecap="round" stroke-width="1.895" d="M109 149v-6"/>
    <path fill="#DDCAC3" fill-opacity=".2" d="M132.994 165.474c0 11.466-28.666 20.76-64.026 20.76-35.361 0-64.027-9.294-64.027-20.76 0-11.464 28.666-20.758 64.027-20.758 35.36 0 64.026 9.294 64.026 20.758"/>
    <path fill="#99C6C3" d="M106.503 164.518c0 6.295-22.437 11.398-50.114 11.398-27.677 0-50.113-5.103-50.113-11.398 0-6.296 22.436-11.399 50.113-11.399s50.114 5.103 50.114 11.399"/>
    <path stroke="#640917" stroke-width="1.895" d="M106.503 164.518c0 6.295-22.437 11.398-50.114 11.398-27.677 0-50.113-5.103-50.113-11.398 0-6.296 22.436-11.399 50.113-11.399s50.114 5.103 50.114 11.399z"/>
    <path fill="#E4ECEC" d="M8.06 162.73c.505-.411 1.196-.873 2.14-1.376 1.998-1.061 5.101-2.286 9.848-3.453 9.683-2.381 22.6-3.692 36.373-3.692 13.776 0 26.693 1.31 36.372 3.692 4.748 1.167 7.853 2.392 9.85 3.453.943.503 1.634.965 2.138 1.375.89-.722 1.182-1.259 1.182-1.495 0-.37-.715-1.485-3.32-2.87-1.997-1.065-5.102-2.287-9.85-3.453-9.679-2.382-22.596-3.693-36.372-3.693-13.773 0-26.69 1.311-36.373 3.693-4.747 1.166-7.85 2.388-9.849 3.452-2.605 1.386-3.32 2.501-3.32 2.871 0 .236.293.773 1.181 1.495m103.437 0c-1.066 4.339-6.886 7.84-17.342 10.41-10.114 2.483-23.516 3.855-37.734 3.855-14.219 0-27.62-1.372-37.732-3.856-10.455-2.57-16.275-6.07-17.345-10.409-.119.49-.18.99-.18 1.5 0 5.036 5.895 9.043 17.525 11.903 10.112 2.484 23.513 3.857 37.732 3.857 14.218 0 27.62-1.373 37.734-3.857 11.63-2.86 17.526-6.867 17.526-11.904 0-.51-.061-1.01-.184-1.499"/>
    <path fill="#E4ECEC" d="M104.781 162.73c-1.573 1.272-5.006 3.11-11.988 4.827-7.26 1.787-16.34 2.974-26.237 3.453a196.909 196.909 0 0 1-7.479.226c-.882.01-1.764.014-2.656.014a195.58 195.58 0 0 1-7.642-.133c-.835-.032-1.666-.063-2.49-.107-9.897-.479-18.98-1.666-26.24-3.453-6.982-1.717-10.415-3.555-11.989-4.828-.888.722-1.181 1.263-1.181 1.5 0 .65 2.234 3.63 13.17 6.319 7.26 1.79 16.343 2.973 26.24 3.456.824.041 1.655.075 2.49.102.837.032 1.675.059 2.523.076.817.02 1.638.038 2.466.048a233.392 233.392 0 0 0 5.309 0c.824-.01 1.645-.028 2.466-.048a149.7 149.7 0 0 0 2.52-.076c.838-.027 1.665-.06 2.493-.102 9.897-.483 18.976-1.666 26.237-3.456 10.936-2.69 13.17-5.67 13.17-6.32 0-.236-.293-.777-1.182-1.499"/>
    <path stroke="#640917" stroke-width="1.895" d="M104.781 162.73c-1.573 1.272-5.006 3.11-11.988 4.827-7.26 1.787-16.34 2.974-26.237 3.453a196.909 196.909 0 0 1-7.479.226c-.882.01-1.764.014-2.656.014a195.58 195.58 0 0 1-7.642-.133c-.835-.032-1.666-.063-2.49-.107-9.897-.479-18.98-1.666-26.24-3.453-6.982-1.717-10.415-3.555-11.989-4.828-.888.722-1.181 1.263-1.181 1.5 0 .65 2.234 3.63 13.17 6.319 7.26 1.79 16.343 2.973 26.24 3.456.824.041 1.655.075 2.49.102.837.032 1.675.059 2.523.076.817.02 1.638.038 2.466.048a233.392 233.392 0 0 0 5.309 0c.824-.01 1.645-.028 2.466-.048a149.7 149.7 0 0 0 2.52-.076c.838-.027 1.665-.06 2.493-.102 9.897-.483 18.976-1.666 26.237-3.456 10.936-2.69 13.17-5.67 13.17-6.32 0-.236-.293-.777-1.182-1.499z"/>
    <path fill="#F2F7F7" d="M105.963 164.228c0 .65-2.234 3.63-13.17 6.32-7.26 1.79-16.34 2.973-26.237 3.456-.828.041-1.655.075-2.493.103-.834.03-1.675.058-2.52.075-.82.02-1.642.037-2.466.048a233.921 233.921 0 0 1-5.309 0c-.828-.01-1.649-.028-2.466-.048a150.16 150.16 0 0 1-2.524-.075 154.95 154.95 0 0 1-2.49-.103c-9.896-.483-18.979-1.666-26.24-3.456-10.935-2.69-13.17-5.67-13.17-6.32 0-.236.294-.777 1.182-1.499-.888-.722-1.181-1.259-1.181-1.495 0-.37.715-1.485 3.32-2.87 2-1.065 5.102-2.287 9.85-3.453 9.682-2.382 22.6-3.693 36.372-3.693 13.776 0 26.693 1.311 36.372 3.693 4.748 1.166 7.853 2.388 9.85 3.452 2.605 1.386 3.32 2.501 3.32 2.87 0 .237-.293.774-1.182 1.496.89.722 1.182 1.263 1.182 1.499m-9.738 8.373c9.156-2.513 14.279-5.828 15.272-9.872a6.212 6.212 0 0 0-.51-1.375c-1.864-3.706-7.503-6.738-16.832-9.03-8.279-2.036-18.761-3.326-30.092-3.72-.834-.03-1.675-.054-2.52-.075-.82-.024-1.642-.038-2.466-.048a343.99 343.99 0 0 0-2.656-.013c-.89 0-1.771.006-2.653.013-.828.01-1.649.024-2.466.048-.848.02-1.686.045-2.524.075-11.33.394-21.81 1.684-30.089 3.72-9.331 2.292-14.967 5.324-16.834 9.03a6.57 6.57 0 0 0-.51 1.375c1.069 4.339 6.89 7.84 17.344 10.41 10.112 2.483 23.513 3.855 37.732 3.855 14.218 0 27.62-1.372 37.734-3.856a78.127 78.127 0 0 0 2.07-.537"/>
    <path stroke="#707070" stroke-linecap="round" stroke-width="1.895" d="M7.911 162.726c.504-.41 1.196-.873 2.139-1.376 1.999-1.06 5.102-2.285 9.85-3.452 9.681-2.382 22.6-3.692 36.372-3.692 13.775 0 26.693 1.31 36.372 3.692 4.747 1.167 7.853 2.392 9.85 3.452.943.503 1.634.965 2.138 1.376.889.722 1.182 1.262 1.182 1.498 0 .65-2.234 3.631-13.17 6.32-7.26 1.79-16.34 2.974-26.237 3.456-.828.042-1.655.076-2.493.103a159.4 159.4 0 0 1-2.52.075 183.41 183.41 0 0 1-5.122.062 190.123 190.123 0 0 1-5.119-.062c-.848-.017-1.686-.044-2.524-.075a134.79 134.79 0 0 1-2.49-.103c-9.896-.482-18.979-1.666-26.24-3.456-10.935-2.689-13.17-5.67-13.17-6.32 0-.236.293-.776 1.182-1.498zm103.437 0a6.232 6.232 0 0 0-.51-1.376c-1.864-3.706-7.503-6.737-16.832-9.03-8.279-2.036-18.761-3.326-30.092-3.72a227.974 227.974 0 0 0-4.986-.122c-.882-.007-1.764-.014-2.656-.014-.89 0-1.771.007-2.653.014-.828.01-1.649.024-2.466.047-.848.021-1.686.045-2.524.076-11.33.393-21.81 1.683-30.089 3.72-9.331 2.292-14.968 5.323-16.834 9.03a6.317 6.317 0 0 0-.691 2.874c0 5.036 5.895 9.043 17.525 11.904 10.112 2.484 23.513 3.856 37.732 3.856 14.218 0 27.62-1.372 37.734-3.856 11.63-2.86 17.526-6.868 17.526-11.905 0-.51-.061-1.01-.184-1.498z"/>
    <path fill="#E25959" d="M108.794 142.556c0 8.81-23.447 15.951-52.37 15.951-28.924 0-52.372-7.141-52.372-15.95 0-8.81 23.448-15.952 52.371-15.952 28.924 0 52.371 7.142 52.371 15.951"/>
    <path fill="#FFF" d="M3.967 34.047c0 28.165 22.013 51.162 49.696 52.577a1.675 1.675 0 0 1 1.584 1.677c0 .894-.696 1.632-1.584 1.678C25.98 91.394 3.967 114.39 3.967 142.556h104.802c0-28.165-22.013-51.162-49.696-52.577A1.675 1.675 0 0 1 57.49 88.3c0-.893.696-1.632 1.584-1.677 27.683-1.415 49.703-24.277 49.703-52.442"/>
    <path fill="#CDE0DF" d="M108.824 16.938v12.89c0 7.12-23.459 12.89-52.4 12.89-28.406 0-51.534-5.557-52.379-12.496a3.041 3.041 0 0 1-.024-.394v-12.89c0 1.174.637 2.31 1.833 3.391 0 .004.003.004.006.007.453.41.991.811 1.601 1.205 7.537 4.845 26.615 8.287 48.963 8.287 22.059 0 40.933-3.353 48.66-8.1.862-.526 1.584-1.074 2.156-1.635 1.035-1.01 1.584-2.067 1.584-3.155"/>
    <path fill="#E88D3A" d="M108.794 162.418c0 .71-.91.763-1.425 1.25-2.76 2.616-13.243 10.575-50.947 10.575-37.094 0-48.594-7.346-51.51-9.957a2.579 2.579 0 0 1-.86-1.923v-25.246c0-1.42 1.146-2.57 2.559-2.57h99.624a2.565 2.565 0 0 1 2.56 2.57v25.301zM10.425 59.05S24.06 86.787 56.453 86.787c32.395 0 46.028-27.737 46.028-27.737H10.425z"/>
    <path fill="#CDE0DF" d="M108.824 148.464v12.893c0 7.117-23.459 12.886-52.4 12.886s-52.403-5.769-52.403-12.886v-12.893c0 7.12 23.462 12.893 52.403 12.893s52.4-5.772 52.4-12.893"/>
    <path stroke="#707070" stroke-linecap="round" stroke-width="1.895" d="M108.794 148.345v12.891c0 7.12-23.46 12.889-52.4 12.889-28.943 0-52.404-5.77-52.404-12.889v-12.891c0 7.119 23.461 12.891 52.404 12.891 28.94 0 52.4-5.772 52.4-12.891z"/>
    <path fill="#E88D3A" d="M52.64 85.231l3.87 3.65 2.92-3.65-4.289-.538z"/>
    <path fill="#FFBF4D" d="M56.368 47.828c-25.196 0-45.621 5.024-45.621 11.222 0 6.197 20.425 11.222 45.621 11.222s45.621-5.025 45.621-11.222c0-6.198-20.425-11.222-45.62-11.222"/>
    <path stroke="#707070" stroke-linecap="round" stroke-width="1.895" d="M108.794 142.556c0-28.165-21.897-51.163-49.58-52.577a1.675 1.675 0 0 1-1.584-1.677c0-.894.696-1.633 1.585-1.678 27.682-1.415 49.558-23.744 49.558-51.91M4.052 34.047c0 28.165 21.95 51.162 49.634 52.577A1.675 1.675 0 0 1 55.27 88.3c0 .894-.697 1.632-1.585 1.678C26.003 91.394 3.99 114.39 3.99 142.556M108.855 29.828c0 7.118-23.461 12.889-52.402 12.889-28.94 0-52.4-5.77-52.4-12.89"/>
    <path fill="#E88D3A" d="M56.678 86.069v20.822"/>
    <path stroke="#E88D3A" stroke-linecap="round" stroke-width="4.736" d="M56.678 86.069v20.822"/>
    <path fill="#FFBF4D" d="M56.368 121.97c-28.478 0-51.564 5.68-51.564 12.684 0 7.005 23.086 12.683 51.564 12.683s51.564-5.678 51.564-12.683-23.086-12.683-51.564-12.683"/>
    <path fill="#E88D3A" d="M56.678 109.404v2.16"/>
    <path stroke="#E88D3A" stroke-linecap="round" stroke-width="4.736" d="M56.678 109.404v2.16"/>
    <path fill="#E88D3A" d="M56.678 114.235v.898"/>
    <path stroke="#E88D3A" stroke-linecap="round" stroke-width="4.736" d="M56.678 114.235v.898"/>
    <path fill="#F9A541" d="M76.153 57.572c0 1.334-4.182 2.49-10.333 3.083-2.772.267-5.942.417-9.31.417-3.74 0-7.234-.185-10.208-.51-5.66-.612-9.437-1.724-9.437-2.99 0-1.934 8.794-3.5 19.644-3.5 10.85 0 19.644 1.566 19.644 3.5"/>
    <path fill="#E88D3A" d="M65.82 60.655c-2.772.267-5.942.417-9.31.417-3.74 0-7.234-.185-10.208-.51.648-.852 4.758-1.512 9.734-1.512 5.15 0 9.376.705 9.784 1.605"/>
    <path fill="#A0C1BF" d="M108.824 18.865v7.202c-2.813 2.526-7.731 4.658-14.723 6.379-10.111 2.484-23.516 3.856-37.731 3.856-14.222 0-27.62-1.372-37.735-3.856-6.903-1.698-11.787-3.798-14.614-6.28v-7.209c.538.473 1.148.93 1.833 1.372 0 .004.003.004.006.007.372.24.766.48 1.186.712.098.144.235.311.415.492 1.236 1.26 4.587 3.37 12.533 5.325 7.26 1.786 16.343 2.973 26.24 3.452a199.153 199.153 0 0 0 7.479.226c.879.01 1.764.014 2.657.014a195.609 195.609 0 0 0 5.119-.058 197.291 197.291 0 0 0 5.013-.182c9.896-.479 18.976-1.666 26.237-3.452 7.564-1.862 10.966-3.86 12.345-5.136.286-.26.484-.493.613-.685a20.283 20.283 0 0 0 1.543-.95 14.938 14.938 0 0 0 1.584-1.23"/>
    <path fill="#C0D8D7" d="M105.79 9.236c-2.851-1.598-6.72-3.001-11.604-4.202-8.28-2.036-18.758-3.323-30.089-3.72-.838-.027-1.675-.054-2.524-.075-.817-.02-1.638-.034-2.465-.048-.882-.006-1.764-.013-2.653-.013-.893 0-1.774.007-2.657.013-.824.014-1.648.028-2.465.048-.845.02-1.686.048-2.524.076-11.327.396-21.81 1.683-30.089 3.72-4.88 1.2-8.752 2.603-11.6 4.198-2.234 1.249-3.838 2.617-4.808 4.102.974 1.485 2.581 2.857 4.818 4.11-.156-.226-.217-.397-.217-.507 0-.37.715-1.485 3.317-2.87.446-.237.947-.483 1.512-.733 1.955-.876 4.652-1.813 8.337-2.72 9.682-2.382 22.6-3.692 36.376-3.692 13.772 0 26.69 1.31 36.369 3.692 3.692.907 6.385 1.844 8.344 2.72.561.25 1.062.496 1.508.732 2.606 1.386 3.32 2.502 3.32 2.871 0 .11-.06.28-.213.503 2.233-1.252 3.84-2.62 4.812-4.106-.968-1.481-2.575-2.85-4.806-4.1"/>
    <path fill="#E4ECEC" d="M111.712 16.938c0 5.037-5.896 9.044-17.526 11.905-10.111 2.484-23.516 3.856-37.731 3.856-14.222 0-27.62-1.372-37.735-3.856C7.09 25.982 1.195 21.975 1.195 16.938c0-.995.231-1.957.694-2.87.123-.247.266-.493.423-.733.974 1.485 2.581 2.857 4.818 4.11.77 1.129 3.839 3.576 12.949 5.817 7.261 1.786 16.344 2.973 26.24 3.452a199.355 199.355 0 0 0 7.479.226c.879.01 1.764.014 2.657.014a195.609 195.609 0 0 0 5.118-.058 197.182 197.182 0 0 0 5.014-.182c9.896-.479 18.976-1.666 26.237-3.452 9.124-2.245 12.192-4.691 12.959-5.82 2.233-1.253 3.84-2.622 4.812-4.107.16.24.303.486.425.733.46.913.692 1.875.692 2.87"/>
    <path stroke="#707070" stroke-width="1.895" d="M111.712 16.938c0 5.037-5.896 9.044-17.526 11.905-10.111 2.484-23.516 3.856-37.731 3.856-14.222 0-27.62-1.372-37.735-3.856C7.09 25.982 1.195 21.975 1.195 16.938c0-.995.231-1.957.694-2.87.123-.247.266-.493.423-.733.974 1.485 2.581 2.857 4.818 4.11.77 1.129 3.839 3.576 12.949 5.817 7.261 1.786 16.344 2.973 26.24 3.452a199.355 199.355 0 0 0 7.479.226c.879.01 1.764.014 2.657.014a195.609 195.609 0 0 0 5.118-.058 197.182 197.182 0 0 0 5.014-.182c9.896-.479 18.976-1.666 26.237-3.452 9.124-2.245 12.192-4.691 12.959-5.82 2.233-1.253 3.84-2.622 4.812-4.107.16.24.303.486.425.733.46.913.692 1.875.692 2.87z"/>
    <path fill="#CDE0DF" d="M110.652 14.066c0 7.118-24.253 12.888-54.17 12.888-29.918 0-54.17-5.77-54.17-12.888S26.564 1.178 56.482 1.178c29.917 0 54.17 5.77 54.17 12.888"/>
    <path stroke="#707070" stroke-linecap="round" stroke-width="1.895" d="M110.652 14.066c0 7.118-24.253 12.888-54.17 12.888-29.918 0-54.17-5.77-54.17-12.888S26.564 1.178 56.482 1.178c29.917 0 54.17 5.77 54.17 12.888z"/>
    <path fill="#FFBF4D" d="M57.856 118.125l15.954 17.574H38.228l16.894-17.612a1.868 1.868 0 0 1 2.734.038m-7.042 28.322h20.632s.713-8.892-1.021-7.927c-9.22 5.133-19.611 2.396-19.611 2.396v5.531z"/>
    <path fill="#FFBF4D" d="M29.852 141.667l15.893 4.637s7.033-5.117 5.069-5.388c-11.296-1.563-5.98-12.103-5.98-12.103l-14.982 12.854zm44.915 3.013l20.119-2.124s1.226-11.093-.508-10.128c-9.22 5.132-23.57 1.687-23.57 1.687l3.959 10.564z"/>
    <path fill="#FFBF4D" d="M65.846 146.048l7.722-.747s5.269-5.7 3.347-5.212c-4.893 1.24-11.069.427-11.069.427v5.532zm-38.162-5.988h-10.33l2.419-10.814s3.952 3.39 9.245 3.39c2 0-1.334 7.424-1.334 7.424m3.426-7.243s12.382 1.312 15.783-4.448c.015 2.487.307 4.569.726 6.285-2.013 1.813-2.353 3.818-2.013 4.636 1.068 2.573 5.208 1.968 5.208 1.968l-8.67 2.625s-7.634-.088-7.677-.044c-.044.044-3.356-11.022-3.356-11.022"/>
    <path fill="#FFC871" d="M47.772 125.75l7.183-8.018a1.968 1.968 0 0 1 2.961.031l6.863 7.987-3.588-2.154a9.392 9.392 0 0 0-9.527-.088l-3.892 2.242z"/>
    <path fill="#77172A" fill-opacity=".05" d="M58.494 89.771s39.36 2.729 37.949 66.886l-.278 12.976s11.552-2.54 12.66-8.277c0 0-.047-4.504-.05-10.78 0-3.229.495-6.67 0-10.74-1.423-11.73-5.587-25.81-16.49-35.61-18.58-16.702-33.79-14.455-33.79-14.455m.397-3.442s35.716-2.476 37.883-58.168c.741-.746 5.833-1.446 12.09-5.55.39 7.133.164 19.172-3.362 29.904-2.424 7.377-6.407 13.594-12.82 19.359-18.582 16.703-33.791 14.455-33.791 14.455"/>
    <path stroke="#707070" stroke-linecap="round" stroke-width="1.895" d="M3.967 22.435v12.768m104.857-12.768v12.768M3.993 152.56v-11.608m104.783 14.063v-12.431"/>
  </g>
</svg>
