<svg xmlns="http://www.w3.org/2000/svg" viewBox="0 0 48 48">
    <path d="M28.67 37.55c-1.57 1.31-3.12 2.62-4.67 3.94-1.55-1.32-3.1-2.63-4.67-3.94-9.12-7.64-15.15-12.69-15.15-19.33A10.67 10.67 0 0 1 6.8 11a8.77 8.77 0 0 1 13.93 1.1 15.46 15.46 0 0 1 2 3.94 1.32 1.32 0 0 0 2.5 0 15.15 15.15 0 0 1 2-3.94A8.77 8.77 0 0 1 41.2 11a10.67 10.67 0 0 1 2.62 7.18c0 6.64-6 11.69-15.15 19.33M43.18 9.33a11.43 11.43 0 0 0-18.06 1.28A15.64 15.64 0 0 0 24 12.39a17.18 17.18 0 0 0-1.12-1.78A11.43 11.43 0 0 0 4.82 9.33a13.26 13.26 0 0 0-3.27 8.89C1.55 21.89 3 25.31 6.14 29c2.8 3.27 6.82 6.65 11.49 10.55 1.82 1.53 3.64 3.06 5.45 4.61h.05a1.33 1.33 0 0 0 1.74 0h.05c1.92-1.65 3.71-3.15 5.45-4.61C35 35.62 39.06 32.24 41.86 29c3.13-3.66 4.59-7.08 4.59-10.75a13.28 13.28 0 0 0-3.27-8.89" fill="#1eabdf" stroke="#fff" stroke-width=".9" fill-rule="evenodd"/>
</svg>
