<svg xmlns="http://www.w3.org/2000/svg" viewBox="0 0 48 48">
    <path d="M18.17 32.33h8.33a.84.84 0 0 1 .83.84.83.83 0 0 1-.83.83h-8.33a.84.84 0 0 1-.84-.83.85.85 0 0 1 .84-.84zm1.66-6.66a.85.85 0 0 1 .84-.84H24a.84.84 0 0 1 .83.84v5h-5zm13.34 6.66h8.33a.84.84 0 0 1 .83.84.83.83 0 0 1-.83.83h-8.33a.84.84 0 0 1-.84-.83.85.85 0 0 1 .84-.84zm1.66-6.66a.85.85 0 0 1 .84-.84H39a.84.84 0 0 1 .83.84v5h-5zm6.05 15l.4 1.66h-7.89l.39-1.66zm-15 0l.4 1.66h-7.89l.39-1.66zM6 8.38l4.07-2.71H44V4H9.58L5.1 7a2.46 2.46 0 0 0 1.36 4.5H9v20a2.5 2.5 0 0 0 2.5 2.5v10h1.67V34h2.65a2.5 2.5 0 0 0 2.35 1.67h3.33V39h-2.72a1.67 1.67 0 0 0-1.62 1.28L16.77 42A1.66 1.66 0 0 0 18 44a1.31 1.31 0 0 0 .39 0h7.89a1.66 1.66 0 0 0 1.66-1.67 1.58 1.58 0 0 0 0-.38l-.4-1.67A1.66 1.66 0 0 0 25.88 39h-2.71v-3.33h3.33A2.5 2.5 0 0 0 28.85 34h2a2.5 2.5 0 0 0 2.35 1.67h3.3V39h-2.71a1.67 1.67 0 0 0-1.63 1.28L31.77 42A1.66 1.66 0 0 0 33 44a1.74 1.74 0 0 0 .39 0h7.89a1.66 1.66 0 0 0 1.66-1.67 1.58 1.58 0 0 0 0-.38l-.4-1.67A1.66 1.66 0 0 0 40.88 39h-2.71v-3.33h3.33a2.5 2.5 0 0 0 0-5v-5a2.5 2.5 0 0 0-2.5-2.5h-3.33a2.5 2.5 0 0 0-2.5 2.5v5a2.49 2.49 0 0 0-2.35 1.66h-2a2.49 2.49 0 0 0-2.35-1.66v-5a2.5 2.5 0 0 0-2.5-2.5h-3.3a2.5 2.5 0 0 0-2.5 2.5v5a2.49 2.49 0 0 0-2.35 1.66H11.5a.83.83 0 0 1-.83-.83v-20H44V9.83H6.46A.79.79 0 0 1 5.67 9 .78.78 0 0 1 6 8.38z" fill="#1eabdf" fill-rule="evenodd"/>

</svg>
