<svg xmlns="http://www.w3.org/2000/svg" viewBox="0 0 48 48">
  <path d="M3 30h43M3 34.9h43M9.6 34l.9-3.16M23.44 34l.9-3.16M37.28 34l.9-3.16" fill="none" stroke="#1eabdf" stroke-linecap="square" stroke-width="1.2"/>
  <path d="M30.09 23.28L28.87 23l-.23-4.74 1.19-.26.26 5.3zm-7.54-5l4.87.08.23 4.5-4.88-.09zm-2.69-.5l1.46.35.23 4.74-1.42.3a9 9 0 0 1-.27-5.39zm8-.53L22 17.12l-2.41-.58a.56.56 0 0 0-.71.35l-.06.17a10 10 0 0 0 .34 6.75l.07.17a.65.65 0 0 0 .74.38l2.36-.5 5.95.1 2.37.59a.57.57 0 0 0 .72-.39.33.33 0 0 0 0-.14L31 17.28a.63.63 0 0 0-.64-.57h-.15l-2.32.51z" fill="#1eabdf" fill-rule="evenodd"/>
  <path d="M32.63 17.53v5.84a2.36 2.36 0 0 1-2.28 2.38l-2.78.07-2.22-.52-8.18.57h-.14v-1a2.26 2.26 0 0 0-2.3-2.28v-3.5A2.36 2.36 0 0 0 17 16.73v-1h.15l8 .2 2.38-.63 2.79-.07a2.26 2.26 0 0 1 2.3 2.28m-17.83 6.27a1.13 1.13 0 0 1 1.13 1.13v.66a2.23 2.23 0 0 1-1.14-1.8m.66-7.36a2.18 2.18 0 0 1 .42-.33v.66a1.18 1.18 0 0 1-1.1 1.26 2.33 2.33 0 0 1 .69-1.53m14.87-2.33l-2.85.07-2.35.63-2.66-.07.37-.78a.59.59 0 0 0-.25-.78h-.07a.59.59 0 0 0-.71.31l-.56 1.18a.64.64 0 0 0 0 .07l-4-.11A3.53 3.53 0 0 0 13.6 18v5.67A3.4 3.4 0 0 0 17.08 27h.2l4-.29v.07L21.9 28a.55.55 0 0 0 .75.25.58.58 0 0 0 .25-.79l-.38-.76 2.67-.19 2.2.51h3a3.54 3.54 0 0 0 3.41-3.58v-5.83a3.4 3.4 0 0 0-3.45-3.42" fill="#1eabdf" fill-rule="evenodd"/>
  <path d="M3.19 25.12v-1.78h1.72l2.28.58a.59.59 0 0 0 .72-.43l.26-1.31a8.79 8.79 0 0 0 .18-1.77 8.71 8.71 0 0 0-.18-1.77l-.26-1.32a.59.59 0 0 0-.7-.46l-2.28.58H3.19v-1.81h5.34a1.18 1.18 0 0 1 1.18 1.19v7.12a1.18 1.18 0 0 1-1.18 1.18H3.19zm1.18-3V18.6H3.19v3.56zm2.51-4l.14.7a8 8 0 0 1 0 3.08l-.14.7-1.32-.34v-3.79zm4 5.8v-7.1a2.37 2.37 0 0 0-2.37-2.37H2v11.86h6.53a2.37 2.37 0 0 0 2.37-2.37zm33.93-7.81v1.78h-1.07l-2.26-.58a.58.58 0 0 0-.68.36l-.34.89a6.25 6.25 0 0 0 0 4.58l.34.9a.57.57 0 0 0 .68.35l2.26-.57h1.09v1.78h-5.45c-.93 0-2.11-.67-2.11-1.19v-7.1c0-.52 1.18-1.18 2.11-1.18zm0 6.52v-3.54h-.56v3.56zm-3.14.49l-.16-.42a5 5 0 0 1 0-3.7l.16-.41 1.43.41v3.82l-1.41.36zm-5.58-5.83v7.12c0 1.43 2 2.37 3.27 2.37H46V14.94h-6.62c-1.3 0-3.27.95-3.27 2.37z" fill="#1eabdf" fill-rule="evenodd"/>
</svg>
