<svg xmlns="http://www.w3.org/2000/svg" viewBox="0 0 48 48">
  <path d="M38 36a.69.69 0 0 1-.75.71l-28.18-.45a.69.69 0 0 1-.72-.74l.13-8a.7.7 0 0 1 .76-.71h.37a2.27 2.27 0 0 0 2.17-1.56l2.75-8.77a2.25 2.25 0 0 1 2-1.21l13.92.25a2.16 2.16 0 0 1 2 1.27l2.44 8.86A2.28 2.28 0 0 0 37 27.27h.37a.69.69 0 0 1 .73.74zm-2.32 5.79a.7.7 0 0 1-.76.71h-1.48a.71.71 0 0 1-.73-.75l.07-3.64h3zm-22.22-.39a.69.69 0 0 1-.76.71h-1.48a.71.71 0 0 1-.73-.74l.07-3.65 3 .06-.06 3.64zm26-5.38l.14-8a2.16 2.16 0 0 0-2.18-2.23H37a.75.75 0 0 1-.74-.53l-2.43-8.93v-.07A3.75 3.75 0 0 0 30.5 14l-13.92-.2a3.75 3.75 0 0 0-3.45 2.12V16l-2.75 8.84a.89.89 0 0 1-.75.5h-.37A2.17 2.17 0 0 0 7 27.48l-.14 8a2.17 2.17 0 0 0 2.19 2.23L9 41.36a2.18 2.18 0 0 0 2.19 2.23h1.48a2.17 2.17 0 0 0 2.26-2.15l.07-3.62 16.3.29-.07 3.64A2.16 2.16 0 0 0 33.39 44h1.48a2.17 2.17 0 0 0 2.26-2.15l.06-3.64a2.17 2.17 0 0 0 2.26-2.15z" fill="#1eabdf" fill-rule="evenodd"/>
  <path d="M14.55 31.81a1.24 1.24 0 1 1 1.28-1.22 1.26 1.26 0 0 1-1.28 1.22m.06-3.72a2.49 2.49 0 1 0 2.47 2.53 2.49 2.49 0 0 0-2.47-2.53m17.92 3.76a1.25 1.25 0 1 1 1.28-1.22 1.25 1.25 0 0 1-1.28 1.22m.06-3.73a2.49 2.49 0 1 0 2.47 2.53 2.5 2.5 0 0 0-2.47-2.53m-8.31 3.35l-3.35-.06c-.5 0-.84.23-.85.61s.33.63.83.63l3.35.06c.5 0 .84-.23.84-.6s-.32-.63-.82-.64m.93-2.55l-5-.08a.58.58 0 0 0-.63.61.59.59 0 0 0 .61.63l5 .09a.63.63 0 0 0 0-1.25m-6.91-11.43l10.16.18L30 23.49l-13.5-.23 1.78-5.77zm-1.8 7.22l13.52.23a1.43 1.43 0 0 0 1.13-.56 1.46 1.46 0 0 0 .23-1.3l-1.58-5.82a1.36 1.36 0 0 0-1.31-1L18.31 16A1.35 1.35 0 0 0 17 17l-1.82 5.8a1.44 1.44 0 0 0 1.3 1.91z" fill="#1eabdf" fill-rule="evenodd"/>
  <path d="M28.79 13.19l1.21-.37-1.74-4.52 2.79 1.36a.66.66 0 0 0 .88-.26l1.52-3.12.94 2.38a.72.72 0 0 0 .86.42l3.33-1-1 2a.66.66 0 0 0 .33.86l2.79 1.36-2.9.86a.6.6 0 0 0-.41.72v.07l1.1 2.81-2.18-1.06-.54 1.12 3.64 1.78a.69.69 0 0 0 .73-.07.59.59 0 0 0 .17-.68l-1.44-3.67 3.78-1.12a.6.6 0 0 0 .43-.55.68.68 0 0 0-.4-.61l-3.58-1.77 1.36-2.79a.61.61 0 0 0-.13-.7.69.69 0 0 0-.72-.2l-4.22 1.25-1.27-3.24a.73.73 0 0 0-.6-.45.63.63 0 0 0-.63.34L31 8.25l-3.66-1.78a.67.67 0 0 0-.73.07.59.59 0 0 0-.17.67l2.35 6z" fill="#1eabdf" fill-rule="evenodd"/>
</svg>
