<svg xmlns="http://www.w3.org/2000/svg" viewBox="0 0 48 48">
  <path d="M7.16 34.53c-.29 0-.53.35-.53.79v1.57c0 .44.24.79.53.79s.52-.35.52-.79v-1.57c0-.44-.23-.79-.52-.79M31.51 9.26h2.87a.61.61 0 0 0 .67-.53.61.61 0 0 0-.67-.52h-2.87a.61.61 0 0 0-.67.52.61.61 0 0 0 .67.53m-12.08 0a14.34 14.34 0 0 0-2.93 1.44 1 1 0 0 0-.32 1.21c.17.45.59.64.93.42A12.25 12.25 0 0 1 19.79 11a1 1 0 0 0 .5-1.11c-.1-.48-.48-.77-.86-.64m-6.89 4.4A18.82 18.82 0 0 0 10 16.39a.78.78 0 0 0 .12 1.09l.07.05a.91.91 0 0 0 1.21-.18 17.81 17.81 0 0 1 2.36-2.47.78.78 0 0 0 .1-1.09l-.05-.06a.91.91 0 0 0-1.23 0M7.16 26.1a.61.61 0 0 0-.53.67v2.87a.61.61 0 0 0 .53.67.61.61 0 0 0 .52-.67v-2.87a.61.61 0 0 0-.52-.67m18-16.84h2.87a.61.61 0 0 0 .67-.53.61.61 0 0 0-.67-.52H25.2a.61.61 0 0 0-.67.52.61.61 0 0 0 .67.53M8.27 19.83a.71.71 0 0 0-.9.42 15.16 15.16 0 0 0-.73 3 .68.68 0 0 0 .59.77.69.69 0 0 0 .77-.61 14.15 14.15 0 0 1 .7-2.71.69.69 0 0 0-.42-.87M40.05 9.26h1.58c.44 0 .79-.24.79-.53s-.35-.52-.79-.52h-1.58c-.43 0-.79.23-.79.52s.36.53.79.53" fill="#1eabdf" fill-rule="evenodd"/>
  <path d="M12.49 25.24v14.17H3.86V25.24A20 20 0 0 1 24 5.42h20.14v8.49H24a11.42 11.42 0 0 0-11.51 11.33M24 15.33h20.86a.71.71 0 0 0 .72-.71V4.71a.71.71 0 0 0-.72-.71H24A21.41 21.41 0 0 0 2.42 25.24v14.87a.71.71 0 0 0 .72.71h10.07a.71.71 0 0 0 .72-.71V25.24A10 10 0 0 1 24 15.33" fill="#1eabdf" fill-rule="evenodd"/>
  <path d="M42.07 38.87V36.8a.7.7 0 0 0-.7-.72.7.7 0 0 0-.7.72v2.08a3 3 0 0 1-1.4-4.88L41 31.94a.48.48 0 0 1 .69-.07.46.46 0 0 1 .07.07L43.47 34a3.06 3.06 0 0 1-1.4 4.87m2.47-5.81L42.83 31a1.87 1.87 0 0 0-2.64-.26 2.13 2.13 0 0 0-.26.26l-1.73 2.08c-2.17 2.62-.77 6.76 2.47 7.26v2.94a.7.7 0 1 0 1.4 0v-2.94a4.5 4.5 0 0 0 2.47-7.28" fill="#1eabdf" fill-rule="evenodd"/>
  <path d="M31.53 38.9v-2.06a.7.7 0 1 0-1.39 0v2.06a3 3 0 0 1-1.39-4.83L30.46 32a.49.49 0 0 1 .69-.07.23.23 0 0 1 .07.07l1.7 2a3 3 0 0 1-1.39 4.9zm.75-7.83a1.86 1.86 0 0 0-2.61-.26 1.66 1.66 0 0 0-.27.26l-1.71 2.07c-2.16 2.6-.77 6.72 2.45 7.22v2.92a.7.7 0 1 0 1.39 0v-2.92A4.46 4.46 0 0 0 34 33.12z" fill="#1eabdf" fill-rule="evenodd"/>
  <path d="M35.06 22.43l1.73-2.07a.48.48 0 0 1 .69-.07.46.46 0 0 1 .07.07l1.71 2.06a3.06 3.06 0 0 1-1.4 4.87v-2.07a.71.71 0 0 0-.7-.72.7.7 0 0 0-.7.72v2.08a3 3 0 0 1-1.4-4.87zm2.8 6.33a4.5 4.5 0 0 0 2.47-7.28l-1.72-2.06a1.86 1.86 0 0 0-2.61-.26 2.13 2.13 0 0 0-.26.26L34 21.5c-2.17 2.62-.77 6.76 2.47 7.27v2.93a.7.7 0 1 0 1.4 0zm-13.33-6.33l1.73-2.07a.49.49 0 0 1 .69-.08l.07.08 1.71 2.06a3.05 3.05 0 0 1-1.4 4.87v-2.07a.7.7 0 0 0-.7-.72.71.71 0 0 0-.7.72v2.08a3 3 0 0 1-1.4-4.87zm2.8 6.33a4.5 4.5 0 0 0 2.47-7.28l-1.71-2.06a1.86 1.86 0 0 0-2.63-.26 1.66 1.66 0 0 0-.27.26l-1.72 2.08c-2.18 2.62-.77 6.76 2.46 7.27v2.93a.7.7 0 1 0 1.4 0z" fill="#1eabdf" fill-rule="evenodd"/>
  <path d="M22.05 38.9v-2.06a.7.7 0 0 0-.69-.72.72.72 0 0 0-.69.72v2.06a3 3 0 0 1-1.37-4.83L21 32a.47.47 0 0 1 .67-.07.23.23 0 0 1 .07.07l1.69 2a3.06 3.06 0 0 1-1.38 4.9zm.75-7.83a1.84 1.84 0 0 0-2.58-.28 2.47 2.47 0 0 0-.28.28l-1.69 2.07c-2.15 2.6-.76 6.72 2.42 7.22v2.92a.69.69 0 1 0 1.38 0v-2.92c3.14-.54 4.59-4.61 2.43-7.24z" fill="#1eabdf" fill-rule="evenodd"/>
</svg>
