<svg xmlns="http://www.w3.org/2000/svg" viewBox="0 0 48 48">
  <path d="M40.12 25.53l-.09.39c2.69.77 1.26 3.85-.67 4l-.1.4c2.58.65 1.35 3.83-.67 4l-.1.4c2.11.34 1.6 3.92-1.59 3.92H21c-1.12 0-2.15-1.27-3-1.27h-.7V25.16a28.42 28.42 0 0 0 2.61-1.79c1.16-1 5.91-8.61 5.91-9.56s-.1-5.09-.1-5.09.93-1.19 3-.32a17.86 17.86 0 0 1 1.92 5.86s-.78 5.35-1.21 7h11c2.75.03 2.23 3.87-.31 4.27zM5.68 39.9H15.8v-16H5.68zm37.17-14.23c2-2 1.4-6.06-2.11-6.06h-9.23c.35-1.94.86-5.16.84-5.46a19.76 19.76 0 0 0-2.13-6.53c-.33-.63-2-1.47-3.75-1.11C24.26 7 24 8.39 24 8.77c0 0 .1 3.84.11 4.87-1.06 2.3-4.71 8.37-5.82 8.84a1.68 1.68 0 0 0-.87-.24H5.79A1.78 1.78 0 0 0 4 24v16a1.7 1.7 0 0 0 1.68 1.54h10.48a1.69 1.69 0 0 0 1.69-1.68v-.53a1.2 1.2 0 0 1 .56.08 4.78 4.78 0 0 0 2.59 1h15.64c5.85 0 5.22-5.15 4.69-5.85a4 4 0 0 0 .76-4.45 4 4 0 0 0 .76-4.44z" fill="#1eabdf" fill-rule="evenodd"/>
</svg>
