<svg xmlns="http://www.w3.org/2000/svg" viewBox="0 0 48 48">
  <path d="M38.24 41.37a2.37 2.37 0 0 1-2.19-1.45 2.34 2.34 0 0 1 .5-2.56 2.37 2.37 0 0 1 2.57-.53l.19.08a2.35 2.35 0 0 1-1.07 4.46zM37.46 26v-6.11a1.26 1.26 0 0 0-1.26-1.24H14.72a.64.64 0 0 0-.65.64v2.47a15.88 15.88 0 0 0-1.45.82V9.85a1 1 0 0 0-.71-.93l-4-1.2a.73.73 0 0 1-.5-.92.74.74 0 0 1 .92-.49l5.21 1.56a.73.73 0 0 1 .51.71v8a.69.69 0 0 0 .65.68h23.5a.7.7 0 0 1 .72.68l-.08 17.53a3.56 3.56 0 0 0-1.38 0V26zm-7.58 5.22a10.82 10.82 0 0 0-1.3-4.62h7.6v4.62zm6.3-5.9h-8.41a11.2 11.2 0 0 0-12.42-4.08v-1.31h20.83v5.42zM18.73 41.71a9.85 9.85 0 1 1 9.89-9.91.33.33 0 0 0 0 .14 9.87 9.87 0 0 1-9.89 9.77zm21.39-5.81l.08-18a1.94 1.94 0 0 0-.59-1.4 2 2 0 0 0-1.41-.57H15.35V8.58a2 2 0 0 0-1.42-1.93L8.71 5.08A2 2 0 0 0 6.2 6.43a2 2 0 0 0 1.36 2.51l3.78 1.13v13.49a11 11 0 0 0-3.77 8.31 11.17 11.17 0 0 0 22.31.66h6.3V36a3.63 3.63 0 1 0 3.94-.13z" fill="#1eabdf" fill-rule="evenodd"/>
  <path d="M18.43 38.4A6.6 6.6 0 1 1 25 31.8a6.62 6.62 0 0 1-6.6 6.6m0-14.44a7.84 7.84 0 1 0 7.84 7.84 7.84 7.84 0 0 0-7.81-7.8" fill="#1eabdf" fill-rule="evenodd"/>
</svg>
