<svg xmlns="http://www.w3.org/2000/svg" viewBox="0 0 48 48">
  <path d="M38.52 30a3.15 3.15 0 0 1-3.16-3.15 3.15 3.15 0 0 1 3.15-3.15 3.14 3.14 0 0 1 3.15 3.15A3.15 3.15 0 0 1 38.52 30zM13.9 31.21c-.57 0-.63-.88-.63-1.26v-1.34H13.61a9.08 9.08 0 0 0 .91.05c.3 0 .6 0 .9-.05H15.76V30c0 .38-.06 1.26-.63 1.26zM6.33 19.92v-.05h1.89v.07a6.27 6.27 0 0 0 4.51 5.9 7.13 7.13 0 0 0 4.24 0 6.27 6.27 0 0 0 4.51-5.9v-.07h1.26v.05a7.73 7.73 0 0 1-6.44 7.33 8.93 8.93 0 0 1-3.53 0 7.73 7.73 0 0 1-6.44-7.33zm4.42-12.66a.63.63 0 0 1 .63.63.63.63 0 1 1-.63-.63zm7.57 1.26a.63.63 0 1 1 .68-.63.63.63 0 0 1-.63.63zm24.57 17.65a4.41 4.41 0 0 0-3.74-3.73v-1.15a5.57 5.57 0 0 0-5.37-5.73 5.58 5.58 0 0 0-5.36 5.56v12.42a6.93 6.93 0 0 1-6.63 7.2c-3.65 0-6.63-3.23-6.63-7.2v-1.07c.92 0 1.9-.66 1.9-2.52v-1.59A8.93 8.93 0 0 0 24 19.92V18.6h-1.26v-8.2a3.15 3.15 0 0 0-2.6-3.08 1.88 1.88 0 0 0-3.58 1.17 1.9 1.9 0 0 0 2.38 1.2 1.87 1.87 0 0 0 1.13-1.09 1.91 1.91 0 0 1 1.38 1.81v8.19h-1.24v1.34a5 5 0 0 1-3.63 4.7 5.71 5.71 0 0 1-3.47 0 5 5 0 0 1-3.63-4.7V18.6H7.59v-8.19A1.91 1.91 0 0 1 9 8.59a1.9 1.9 0 1 0 3.54-1.38A1.9 1.9 0 0 0 9 7.32a3.13 3.13 0 0 0-2.62 3.09v8.19H5.07v1.32A8.93 8.93 0 0 0 12 28.36V30c0 1.86 1 2.52 1.89 2.52v1.07c0 4.67 3.54 8.46 7.89 8.46s7.89-3.8 7.89-8.46V21.16a4.31 4.31 0 0 1 4.1-4.34 4.31 4.31 0 0 1 4.11 4.47v1.15a4.41 4.41 0 0 0-3.75 5 4.42 4.42 0 0 0 8.75-1.26z" fill="#1eabdf" fill-rule="evenodd"/>
  <path d="M39.12 28.05a.65.65 0 1 1 0-1.29.65.65 0 1 1 0 1.29m0-2.59a1.95 1.95 0 1 0 2 1.95 2 2 0 0 0-2-1.95" fill="#1eabdf" fill-rule="evenodd"/>
</svg>
