<svg xmlns="http://www.w3.org/2000/svg" viewBox="0 0 48 48">
  <path d="M41.92 32.71a9.24 9.24 0 0 1-12.46-.53 9.11 9.11 0 0 1-1.69-2.3 3.24 3.24 0 0 0 2.31-4 3.25 3.25 0 0 0-.83-1.39 3.18 3.18 0 0 0-2.25-.98 9.24 9.24 0 0 1 14.91-4.86v14.06zm-13.67-14a10.29 10.29 0 0 0-2.54 5l-3.15.76a1 1 0 0 1-.91-.22l-1.76-1.5a1 1 0 0 1-.27-1.18l1.6-3.73a1 1 0 0 1 .79-.6l3.22-.5A1 1 0 0 1 26 17l2.24 1.72zm-8 11.86a6.75 6.75 0 0 1-5.63-1.06l-3.25-2.34a3.8 3.8 0 0 0-2.28-.73H7.58V15.89h1a4.71 4.71 0 0 0 2.2-.54l6.52-3.43a9.42 9.42 0 0 1 4.06-1.06l5.06-.14a1.85 1.85 0 0 1 1.4.59L32.19 16a10.28 10.28 0 0 0-3.06 1.84L26.77 16a2.24 2.24 0 0 0-1.77-.46l-3.22.5a2.24 2.24 0 0 0-1.73 1.33l-1.6 3.73a2.23 2.23 0 0 0 .6 2.59l1.76 1.5a2.27 2.27 0 0 0 2 .48l3.63-.88a2 2 0 0 1 1 3.91zM43.77 7.46H45V6.23h-1.23a1.93 1.93 0 0 0-1.85 2v8.88a10.46 10.46 0 0 0-8.43-1.55l-4.77-5.09a3.1 3.1 0 0 0-2.33-1l-5.07.14a10.38 10.38 0 0 0-4.59 1.2l-6.53 3.46a3.54 3.54 0 0 1-1.63.4h-1v-1.49H3v1.23h3.35v13.48H3v1.22h4.58v-1.49h1.47a2.71 2.71 0 0 1 1.56.5l3.25 2.34a8 8 0 0 0 6.65 1.26l6-1.53a10.47 10.47 0 0 0 15.37 4.06v5.52a1.93 1.93 0 0 0 1.85 2H45v-1.23h-1.23a.71.71 0 0 1-.61-.77V8.23a.71.71 0 0 1 .61-.77z" fill="#1eabdf" fill-rule="evenodd"/>
  <path d="M34.29 22.59h2.4a2 2 0 0 1 0 4H34.3v-4zm-1.14 9.49h1.14v-4.17h2.4a3.14 3.14 0 0 0 2.93-3.3 3.14 3.14 0 0 0-2.93-3.3h-3.54z" fill="#1eabdf" fill-rule="evenodd"/>
</svg>
