<svg xmlns="http://www.w3.org/2000/svg" viewBox="0 0 48 48">
  <path d="M31.74 36.26v.07a4.5 4.5 0 0 0-6.36-.09l-.09.09v-.07h-7.74v-2.33A1.93 1.93 0 0 1 19.17 32l5.79-1 6.4-6.41h11.35v11.67H36.9v1.29h5.81v1.29H33a4.48 4.48 0 0 0-.39-1.29h3v-1.29zm-3.22 6.45a3.23 3.23 0 1 1 3.22-3.23 3.23 3.23 0 0 1-3.22 3.23zm-4.47-3.87h-6.5v-1.29h6.89a4.6 4.6 0 0 0-.39 1.29zM9.81 33h3.87v-1.26H9.81zm0 9.68h3.87v-8.36H9.81v8.39zm2.58-23.26v11H11.1v-11h.64c.22 0 .43.05.65.03zm-7.1-7.71a6.45 6.45 0 1 1 6.45 6.45 6.46 6.46 0 0 1-6.45-6.45zM44 40.13V23.36H30.83l-6.49 6.49-5.39.9a3.21 3.21 0 0 0-2.69 3.18v6.2h7.79a4.48 4.48 0 0 0 1.31 2.58H15V30.45h-1.32V19.23a7.75 7.75 0 1 0-3.87 0v11.22H8.52v12.26H6.58V44h34.84v-1.29h-9.75A4.51 4.51 0 0 0 33 40.13z" fill="#1eabdf" fill-rule="evenodd"/>
  <path d="M40.39 30.76h-9.82l2.52-2.94h7.3v2.94zm-7.82-4.41l-5 5.89h14.08v-5.89zm-4.45 14.12a.58.58 0 0 1-.59-.59.59.59 0 0 1 .59-.59.6.6 0 0 1 .59.59.59.59 0 0 1-.59.59m0-2.35a1.77 1.77 0 1 0 1.76 1.76 1.76 1.76 0 0 0-1.76-1.76" fill="#1eabdf" fill-rule="evenodd"/>
  <path d="M6.35 6.35l10.59 9.41m0-9.41L6.35 16.94" fill="none" stroke="#1eabdf"/>
</svg>
