<svg xmlns="http://www.w3.org/2000/svg" viewBox="0 0 48 48">
  <circle cx="24" cy="24" r="20" fill="none" stroke="#1eabdf" stroke-width="1.2"/>
  <path d="M22.54 30.18v-.86a8.18 8.18 0 0 1 .46-2.95 6.9 6.9 0 0 1 1.14-1.88 22.31 22.31 0 0 1 2.09-2 9.87 9.87 0 0 0 1.95-2.11 3.42 3.42 0 0 0 .45-1.72 4 4 0 0 0-1.32-3 4.47 4.47 0 0 0-3.23-1.28A4.37 4.37 0 0 0 21 15.55a6.15 6.15 0 0 0-1.62 3.62l-3-.36a7.72 7.72 0 0 1 2.39-5A7.64 7.64 0 0 1 24 12a7.88 7.88 0 0 1 5.52 1.88 6 6 0 0 1 2.06 4.55 5.71 5.71 0 0 1-.73 2.85 13.4 13.4 0 0 1-2.83 3.17 14 14 0 0 0-1.85 1.85 4 4 0 0 0-.64 1.37 11.27 11.27 0 0 0-.24 2.5zM22.36 36v-3.3h3.3V36z" fill="#1eabdf"/>
</svg>
