<svg xmlns="http://www.w3.org/2000/svg" viewBox="0 0 48 48">
  <path d="M37.21 27.59a1.71 1.71 0 1 1-1.71-1.69 1.69 1.69 0 0 1 1.71 1.69zm5.24 3.3h-7.61a3.22 3.22 0 0 1-3.23-3.2v-.33a3.21 3.21 0 0 1 3.23-3.19h7.61zm-1.94 9.27a2.31 2.31 0 0 1-2.33 2.3H7.88a2.31 2.31 0 0 1-2.33-2.3V13.81a2.33 2.33 0 0 1 2.33-2.31h8.73l-3.72 2.05H8.36a.77.77 0 0 0-.77.77.77.77 0 0 0 .77.77h32.15v7.55h-5.67a4.75 4.75 0 0 0-4.78 4.72v.33a4.76 4.76 0 0 0 4.78 4.73h5.67v7.74zm-10-34.53a.8.8 0 0 1 1.06.3l4.28 7.62H16.08l14.38-7.92zm7.72 5.87a2.31 2.31 0 0 1 2.3 2.05h-2.96l-1.15-2.05zM44 22.63h-1.94V13.8a3.86 3.86 0 0 0-3.88-3.8h-2.62l-2.69-4.82a2.34 2.34 0 0 0-3.16-.89L19.39 10H7.88A3.86 3.86 0 0 0 4 13.8v26.36A3.86 3.86 0 0 0 7.88 44h30.3a3.86 3.86 0 0 0 3.88-3.84v-7.74H44z" fill="#1eabdf" fill-rule="evenodd"/>
</svg>
