<svg xmlns="http://www.w3.org/2000/svg" viewBox="0 0 48 48">
  <path d="M2 32.34h44M2 36.58h44m-36.92 0l1-4.24m12.81 4.24l1-4.24m12.81 4.24l1-4.24" fill="none" stroke="#1eabdf" stroke-linecap="square"/>
  <path d="M32.88 23.5l-1.46-.36-.3-5.61 1.42-.3zm-9-6l5.82.13L30 23l-5.82-.12zm-3.2-.6l1.74.43.3 5.6-1.72.37a10.58 10.58 0 0 1-.35-6.38zm9.59-.59l-7.09-.15-2.88-.7a.68.68 0 0 0-.85.41l-.06.21a11.67 11.67 0 0 0 .43 8l.08.21a.8.8 0 0 0 .89.45l2.81-.58 7.1.15 2.84.7a.67.67 0 0 0 .85-.46.88.88 0 0 0 0-.16l-.43-8a.76.76 0 0 0-.76-.68H33z" fill="#1eabdf" fill-rule="evenodd"/>
  <path d="M35.88 16.71l.07 6.9a2.78 2.78 0 0 1-2.7 2.81l-3.33.07-2.65-.62-9.75.63a1 1 0 0 0-.17 0v-1.15a2.71 2.71 0 0 0-2.75-2.71V18.5a2.78 2.78 0 0 0 2.7-2.81v-1.14h.19l9.55.27 2.84-.74 3.25-.08a2.71 2.71 0 0 1 2.75 2.7M14.62 24A1.36 1.36 0 0 1 16 25.37v.79A2.68 2.68 0 0 1 14.62 24m.76-8.7a2.28 2.28 0 0 1 .5-.38v.78a1.38 1.38 0 0 1-1.33 1.4 2.74 2.74 0 0 1 .82-1.8m17.74-2.69l-3.41.07-2.79.73-3.19-.09.44-.92a.69.69 0 0 0-.3-.93h-.08a.68.68 0 0 0-.84.36l-.67 1.4a.19.19 0 0 0 0 .08l-4.78-.14a4.16 4.16 0 0 0-4.3 4v.25l.06 6.46a4.07 4.07 0 0 0 4.13 4.06h.24l4.79-.32v.08l.71 1.3a.67.67 0 0 0 .91.29.71.71 0 0 0 .29-.94l-.46-.9 3.18-.22 2.64.62 3.57-.05a4.15 4.15 0 0 0 4.05-4.22l-.06-6.89a4.08 4.08 0 0 0-4.13-4.06" fill="#1eabdf" fill-rule="evenodd"/>
</svg>
