<svg xmlns="http://www.w3.org/2000/svg" viewBox="0 0 48 48">
  <path d="M12.49 38.74h19.86a.59.59 0 0 0 .6-.59.59.59 0 0 0-.59-.58h-2.61V22.48a.59.59 0 0 0-.59-.59.6.6 0 0 0-.6.59v15.09h-3.3v-9.36a.58.58 0 0 0-.59-.59.6.6 0 0 0-.6.59v9.36h-3.3V25.64a.58.58 0 0 0-.59-.58.58.58 0 0 0-.6.58v11.93h-3.29v-6.1a.6.6 0 0 0-.6-.59.6.6 0 0 0-.6.58v6.1h-2.6a.58.58 0 0 0-.59.58.59.59 0 0 0 .59.59M25 8.21H12.51a.57.57 0 0 0-.61.53.57.57 0 0 0 .61.52H25a.57.57 0 0 0 .61-.52.57.57 0 0 0-.61-.53m-1.06 3.16H22a.53.53 0 1 0 0 1.05h1.92a.53.53 0 1 0 0-1.05m-12.46 1.05h8.24a.53.53 0 1 0 0-1.05h-8.24a.53.53 0 1 0 0 1.05" fill="#1eabdf" fill-rule="evenodd"/>
  <path d="M19.22 18v-.83h18.47A1.43 1.43 0 0 1 39 18zm18.47 2H19.22v-.83H39a1.42 1.42 0 0 1-1.31.88zM18 19.74l-2.6-1.11 2.6-1.11zm11.18-8.65a.67.67 0 0 1-.68-.68V6l5.1 5.07zM37.69 16h-2v-4.32a.56.56 0 0 0-.18-.42l-7.14-7.07a.6.6 0 0 0-.44-.19H9.35a1.65 1.65 0 0 0-1.66 1.65v28.17a.59.59 0 0 0 .59.6.6.6 0 0 0 .6-.59V5.65a.47.47 0 0 1 .47-.47h18v5.23a1.87 1.87 0 0 0 1.87 1.86h5.26V16H18.63c-.22 0-4.19 1.73-4.26 1.78a1 1 0 0 0 .11 1.7c4.26 1.82 4 1.72 4.14 1.72h15.85v21.15a.47.47 0 0 1-.48.47H9.35a.47.47 0 0 1-.47-.47v-6.16a.6.6 0 0 0-1.19 0v6.16A1.65 1.65 0 0 0 9.35 44H34a1.66 1.66 0 0 0 1.66-1.65V21.23h2a2.6 2.6 0 1 0 0-5.2z" fill="#1eabdf" fill-rule="evenodd"/>
</svg>
