<svg xmlns="http://www.w3.org/2000/svg" viewBox="0 0 48 48">
  <path d="M35.35 30.52a.56.56 0 0 1-.73.45l-22.54-5.2a.58.58 0 0 1-.46-.73l1.5-6.48a.58.58 0 0 1 .73-.46l.3.07a1.89 1.89 0 0 0 2-.9l3.72-6.66a1.83 1.83 0 0 1 1.85-.61l11.15 2.57a1.78 1.78 0 0 1 1.37 1.38l.43 7.61a1.89 1.89 0 0 0 1.42 1.7l.3.06a.58.58 0 0 1 .46.73l-1.5 6.49zm-2.87 4.31a.57.57 0 0 1-.73.45L30.56 35a.57.57 0 0 1-.45-.73l.68-3 2.37.55-.68 2.95zm-17.8-4.11a.56.56 0 0 1-.72.45l-1.19-.27a.57.57 0 0 1-.46-.73l.68-3 2.38.55-.68 2.95zm21.86.08L38 24.31a1.78 1.78 0 0 0-1.37-2.18l-.29-.07a.6.6 0 0 1-.5-.55l-.42-7.68v-.06a3.11 3.11 0 0 0-2.32-2.4L22 8.8a3.09 3.09 0 0 0-3.14 1.14V10l-3.73 6.72a.74.74 0 0 1-.69.27l-.3-.07a1.8 1.8 0 0 0-2.19 1.36l-1.49 6.49A1.78 1.78 0 0 0 11.81 27l-.68 2.95a1.79 1.79 0 0 0 1.37 2.18l1.18.28A1.79 1.79 0 0 0 15.87 31l.68-2.95 13.05 3-.68 2.95a1.79 1.79 0 0 0 1.37 2.18l1.19.27a1.78 1.78 0 0 0 2.19-1.36l.68-3a1.79 1.79 0 0 0 2.19-1.29z" fill="#1eabdf" fill-rule="evenodd"/>
  <path d="M17.25 23.09a1 1 0 1 1 1.24-.77 1 1 0 0 1-1.24.77m.7-3a2.06 2.06 0 1 0 1.54 2.47A2.06 2.06 0 0 0 18 20.08m13.7 6.11a1 1 0 1 1 1.24-.77 1 1 0 0 1-1.24.77m.7-3a2.07 2.07 0 1 0 1.54 2.48 2.08 2.08 0 0 0-1.54-2.48m-7.27 1.3l-2.68-.61c-.4-.1-.72 0-.79.34s.16.57.56.66l2.68.62c.4.09.72-.05.79-.35s-.16-.56-.56-.66m1.19-1.91l-4-.92a.51.51 0 0 0-.24 1l4 .93a.49.49 0 0 0 .62-.39.5.5 0 0 0-.39-.62m-3.58-10.49L30.86 14l.27 5-10.83-2.53zM20 17.65l10.83 2.5a1.17 1.17 0 0 0 1-.26 1.21 1.21 0 0 0 .42-1l-.27-5a1.11 1.11 0 0 0-.87-1.07L23 10.92a1.11 1.11 0 0 0-1.26.57l-2.43 4.39a1.23 1.23 0 0 0-.07 1.12 1.18 1.18 0 0 0 .76.65z" fill="#1eabdf" fill-rule="evenodd"/>
  <path d="M2 34.15h17.26v5.13H46" fill="none" stroke="#1eabdf"/>
</svg>
