<svg xmlns="http://www.w3.org/2000/svg" viewBox="0 0 48 48">
 <path d="M35.5 20.89a2.57 2.57 0 0 0-.3-1 2.62 2.62 0 0 0-1.59-1.31l-4-1.17a1.47 1.47 0 0 1-.8-.58l-2.35-3.42a2.64 2.64 0 0 0-3.68-.69 2.52 2.52 0 0 0-.69.69l-2.34 3.42a1.51 1.51 0 0 1-.8.58l-4 1.17a2.66 2.66 0 0 0-1.35 4.16L16.17 26a1.43 1.43 0 0 1 .31.93l-.12 4.15a2.65 2.65 0 0 0 2.57 2.72 2.61 2.61 0 0 0 1-.15L21.7 33a21 21 0 0 0-.88 2.79l-.15.05A5 5 0 0 1 14 31l.1-3.64A.52.52 0 0 0 14 27l-2.22-2.89a5 5 0 0 1 .91-7 5 5 0 0 1 1.63-.83l3.49-1a.62.62 0 0 0 .32-.23l2.05-3a5 5 0 0 1 8.21 0l2.06 3a.59.59 0 0 0 .31.23l3.5 1a5 5 0 0 1 3.52 4.11 21.56 21.56 0 0 0-2.29.45m-1.17.34a20.32 20.32 0 0 0-12 10.31l-2.86 1a1.44 1.44 0 0 1-1.36-.19 1.47 1.47 0 0 1-.61-1.24l.16-4.06a2.7 2.7 0 0 0-.55-1.69L14.57 22a1.47 1.47 0 0 1 .75-2.31l4-1.18a2.69 2.69 0 0 0 1.44-1l2.34-3.42a1.47 1.47 0 0 1 2.43 0l2.35 3.42a2.63 2.63 0 0 0 1.43 1l4 1.18a1.43 1.43 0 0 1 .89.72 1.56 1.56 0 0 1 .17.82m9.4-2.82c-.11-.35-.23-.7-.35-1a20.54 20.54 0 0 0-6.92-9.33 20.25 20.25 0 0 0-25.83 1.2.6.6 0 0 0 0 .83.59.59 0 0 0 .83 0A19.09 19.09 0 0 1 35.8 9a19.36 19.36 0 0 1 6.46 8.69 2.15 2.15 0 0 1-.3 1.72 3.3 3.3 0 0 1-2.44.86h-.54a6.14 6.14 0 0 0-4.35-5.11l-3.29-1-1.94-2.83a6.14 6.14 0 0 0-10.14 0l-1.94 2.83-3.29 1a6.13 6.13 0 0 0-4.16 7.62 6 6 0 0 0 1 2L13 27.57 12.86 31A6.15 6.15 0 0 0 19 37.31a6.21 6.21 0 0 0 1.55-.19 23.22 23.22 0 0 0-.27 2.37 3.23 3.23 0 0 1-.85 2.51 2.12 2.12 0 0 1-1.72.3A19.3 19.3 0 0 1 9 35.8a19.06 19.06 0 0 1 .6-23.73.59.59 0 0 0-.08-.82.57.57 0 0 0-.82.07 20.24 20.24 0 0 0-.62 25.18 20.54 20.54 0 0 0 10.33 7.23 6.35 6.35 0 0 0 6.34-1.6l3.05-3.05a.59.59 0 0 0 0-.83.6.6 0 0 0-.79 0l-3 3a5.17 5.17 0 0 1-3.71 1.53 4.36 4.36 0 0 0 1.24-3.24 19.14 19.14 0 0 1 18.03-18.09 4.37 4.37 0 0 0 3.23-1.24 5.17 5.17 0 0 1-1.53 3.71L28.92 36.31a.59.59 0 0 0 0 .83.57.57 0 0 0 .82 0l12.39-12.39a6.36 6.36 0 0 0 1.6-6.34" fill="#1eabdf" stroke="#1eabdf" stroke-width=".5" fill-rule="evenodd"/>
</svg>
