<svg xmlns="http://www.w3.org/2000/svg" viewBox="0 0 48 48">
  <path d="M13.67 27l-.13-1.36 5-1.91.73 1.13zm2.63-9.51l1.72 5-4.78 1.81-1.72-5 4.78-1.81zm-.46-2.93l.16 1.65-5 1.91-.86-1.35a10.54 10.54 0 0 1 5.7-2.18zm3.56 8.06l-2.1-6.14-.3-2.65a.64.64 0 0 0-.64-.6h-.21A11.76 11.76 0 0 0 9 16l-.16.14a.69.69 0 0 0-.14.89l1.42 2.24 2.1 6.14.27 2.59a.65.65 0 0 0 .7.6.8.8 0 0 0 .15 0l7.16-2.73a.69.69 0 0 0 .39-.85.71.71 0 0 0-.08-.15z" fill="#1eabdf" fill-rule="evenodd"/>
  <path d="M20.82 28l-6.29 2.2a2.7 2.7 0 0 1-3.43-1.58l-1.11-3L9.73 23l-3.66-8.76c0-.05 0-.11-.05-.16l1.05-.37a2.63 2.63 0 0 0 1.61-3.38L12.45 9a2.7 2.7 0 0 0 3.43 1.59l1-.37s0 .1.07.16l2.76 8.83 1.58 2.37 1.1 3A2.64 2.64 0 0 1 20.82 28M7.42 10.8a1.31 1.31 0 0 1-.8 1.67l-.71.26a2.57 2.57 0 0 1 1.51-1.93m8.21-2.05a2 2 0 0 1 .51.34l-.71.25a1.35 1.35 0 0 1-1.71-.77 2.63 2.63 0 0 1 1.91.18m8.06 15.39L22.55 21 21 18.72l-.92-2.95 1 .12a.67.67 0 0 0 .75-.57.22.22 0 0 0 0-.08.66.66 0 0 0-.6-.66l-1.48-.17h-.08L18.27 10a4 4 0 0 0-5-2.69l-.23.08-5.87 2.08a3.94 3.94 0 0 0-2.42 5.06l.09.22L6.65 19a.18.18 0 0 0-.07.05l-1 1.06a.65.65 0 0 0 0 .92.69.69 0 0 0 .95 0l.68-.71L8.4 23.2l.27 2.61 1.17 3.25A4 4 0 0 0 15 31.44l6.3-2.23a4 4 0 0 0 2.41-5.07" fill="#1eabdf" fill-rule="evenodd"/>
  <path d="M30.46 5.37h2v2L31.82 10a.68.68 0 0 0 .51.84l1.48.31a10.18 10.18 0 0 0 2 .2 10.15 10.15 0 0 0 2-.2l1.48-.31a.61.61 0 0 0 .43-.3.71.71 0 0 0 .09-.53l-.65-2.64v-2h2v6.15a1.35 1.35 0 0 1-1.33 1.37h-8a1.35 1.35 0 0 1-1.34-1.37zm3.34 1.37h4V5.37h-4zm4.51 2.88l-.79.17a8.71 8.71 0 0 1-3.45 0l-.79-.17.37-1.52h4.29l.37 1.52zm-6.51 4.64h8a2.7 2.7 0 0 0 2.66-2.74V4H29.13v7.52a2.7 2.7 0 0 0 2.67 2.74zm10.35 28.41h-2v-1.24l.65-2.58a.67.67 0 0 0-.4-.78l-1-.39a7 7 0 0 0-5.15 0l-1 .39a.67.67 0 0 0-.4.78l.65 2.58v1.24h-2v-6.23c0-1 .75-2.39 1.33-2.39h8c.59 0 1.33 1.34 1.33 2.4zm-7.33 0h4V42h-4zm-.54-3.58l.46-.19a5.64 5.64 0 0 1 4.16 0l.47.19L39 40.7h-4.32zm6.54-6.37h-8c-1.6 0-2.67 2.24-2.67 3.72V44h13.34v-7.56c0-1.44-1.07-3.72-2.67-3.72z" fill="#1eabdf" fill-rule="evenodd"/>
  <path d="M39.73 35.79H39c-.38 0-.68.23-.68.52s.3.51.68.51h.69c.37 0 .68-.23.68-.51a.62.62 0 0 0-.68-.52m-6.16 0h-.68c-.38 0-.68.23-.68.52s.3.51.68.51h.68c.38 0 .69-.23.69-.51s-.31-.52-.69-.52m-1.88-8.18a.71.71 0 0 0-.85.47 9.16 9.16 0 0 1-2.5 4.14 9.88 9.88 0 0 1-3.87 2.31.63.63 0 0 0-.43.82.7.7 0 0 0 .88.41 11.45 11.45 0 0 0 4.42-2.63 10.56 10.56 0 0 0 2.84-4.73.64.64 0 0 0-.49-.79m-5.64-.31a.66.66 0 0 0-.56-.73.65.65 0 0 0-.74.53 2.67 2.67 0 0 1-2.23 2.26.65.65 0 0 0-.54.74.66.66 0 0 0 .76.53 4 4 0 0 0 3.32-3.36" fill="#1eabdf" fill-rule="evenodd"/>
  <path d="M29.11 27.41a.68.68 0 0 0-.48-.82.69.69 0 0 0-.84.47 6.28 6.28 0 0 1-4.31 4.34.67.67 0 0 0-.47.82.7.7 0 0 0 .86.46 7.64 7.64 0 0 0 5.25-5.28m-8.8-19.8a2.46 2.46 0 0 1 0 1.69.66.66 0 0 0 .49.83.78.78 0 0 0 .22 0 .73.73 0 0 0 .7-.46A3.85 3.85 0 0 0 20 5.15a.79.79 0 0 0-1 .16.63.63 0 0 0 .17.93 2.72 2.72 0 0 1 1.15 1.36m2.78 0a4.7 4.7 0 0 1 .25 2.89c-.08.33.19.66.62.72h.14a.75.75 0 0 0 .77-.51 5.92 5.92 0 0 0-1.51-5.4.9.9 0 0 0-1.08-.17.55.55 0 0 0-.21.86 5.58 5.58 0 0 1 1 1.57" fill="#1eabdf" fill-rule="evenodd"/>
</svg>
