<svg xmlns="http://www.w3.org/2000/svg" viewBox="0 0 48 48">
  <defs>
    <mask id="a" x="3" y="3" width="42" height="42" maskUnits="userSpaceOnUse">
      <path d="M3 45h42V3H3z" fill="#fff" fill-rule="evenodd"/>
    </mask>
  </defs>
  <path d="M42.54 17.93H5.46v-6.32a1.24 1.24 0 0 1 1.23-1.23h1.23v1.23a3.69 3.69 0 0 0 7.38 0v-1.23h5.09v1.23a3.69 3.69 0 0 0 7.38 0v-1.23h4.93v1.23a3.69 3.69 0 0 0 7.38 0v-1.23h1.23a1.23 1.23 0 0 1 1.23 1.23zm0 23.38a1.23 1.23 0 0 1-1.23 1.23H6.69a1.23 1.23 0 0 1-1.23-1.23V20.39h37.08v20.92zM10.38 6.69a1.23 1.23 0 0 1 2.46 0v4.92a1.23 1.23 0 0 1-2.46 0zm12.47 0a1.23 1.23 0 0 1 2.46 0v4.92a1.23 1.23 0 0 1-2.46 0zm12.31 0a1.23 1.23 0 0 1 1.3-1.16 1.25 1.25 0 0 1 1.16 1.16v4.92a1.23 1.23 0 0 1-1.3 1.16 1.22 1.22 0 0 1-1.16-1.16zm6.15 1.23h-1.23V6.69a3.69 3.69 0 1 0-7.38 0v1.23h-4.93V6.69a3.69 3.69 0 0 0-7.38 0v1.23H15.3V6.69a3.69 3.69 0 0 0-7.38 0v1.23H6.69A3.69 3.69 0 0 0 3 11.61v29.7A3.69 3.69 0 0 0 6.69 45h34.62A3.69 3.69 0 0 0 45 41.31v-29.7a3.7 3.7 0 0 0-3.69-3.69z" fill="#1eabdf" fill-rule="evenodd"/>
  <path d="M42.54 17.93H5.46v-6.32a1.24 1.24 0 0 1 1.23-1.23h1.23v1.23a3.69 3.69 0 0 0 7.38 0v-1.23h5.09v1.23a3.69 3.69 0 0 0 7.38 0v-1.23h4.93v1.23a3.69 3.69 0 0 0 7.38 0v-1.23h1.23a1.23 1.23 0 0 1 1.23 1.23zm0 23.38a1.23 1.23 0 0 1-1.23 1.23H6.69a1.23 1.23 0 0 1-1.23-1.23V20.39h37.08v20.92zM10.38 6.69a1.23 1.23 0 0 1 2.46 0v4.92a1.23 1.23 0 0 1-2.46 0zm12.47 0a1.23 1.23 0 0 1 2.46 0v4.92a1.23 1.23 0 0 1-2.46 0zm12.31 0a1.23 1.23 0 0 1 1.3-1.16 1.25 1.25 0 0 1 1.16 1.16v4.92a1.23 1.23 0 0 1-1.3 1.16 1.22 1.22 0 0 1-1.16-1.16zm6.15 1.23h-1.23V6.69a3.69 3.69 0 1 0-7.38 0v1.23h-4.93V6.69a3.69 3.69 0 0 0-7.38 0v1.23H15.3V6.69a3.69 3.69 0 0 0-7.38 0v1.23H6.69A3.69 3.69 0 0 0 3 11.61v29.7A3.69 3.69 0 0 0 6.69 45h34.62A3.69 3.69 0 0 0 45 41.31v-29.7a3.7 3.7 0 0 0-3.69-3.69z" fill="none" stroke="#fff"/>
  <g mask="url(#a)">
    <path d="M33.53 30h5v-4.88h-5zm0 7.31h5v-4.87h-5zM26 30h5v-4.88h-5zm0 7.31h5v-4.87h-5zM18.29 30h5.19v-4.88h-5.19zm0 7.31h5.19v-4.87h-5.19zM10.76 30h5v-4.88h-5zm0 7.31h5v-4.87h-5zm29.05-14.62H9.51a1.23 1.23 0 0 0-1.26 1.22v14.62a1.24 1.24 0 0 0 1.26 1.22h30.3a1.24 1.24 0 0 0 1.25-1.22V23.91a1.23 1.23 0 0 0-1.25-1.22z" fill="#1eabdf" fill-rule="evenodd"/>
  </g>
  <g mask="url(#a)">
    <path d="M33.53 30h5v-4.88h-5zm0 7.31h5v-4.87h-5zM26 30h5v-4.88h-5zm0 7.31h5v-4.87h-5zM18.29 30h5.19v-4.88h-5.19zm0 7.31h5.19v-4.87h-5.19zM10.76 30h5v-4.88h-5zm0 7.31h5v-4.87h-5zm29.05-14.62H9.51a1.23 1.23 0 0 0-1.26 1.22v14.62a1.24 1.24 0 0 0 1.26 1.22h30.3a1.24 1.24 0 0 0 1.25-1.22V23.91a1.23 1.23 0 0 0-1.25-1.22z" fill="none" stroke="#fff"/>
  </g>
</svg>
