<svg xmlns="http://www.w3.org/2000/svg" viewBox="0 0 48 48">
  <defs>
    <mask id="a" x="3.1" y="3" width="39.8" height="42" maskUnits="userSpaceOnUse">
      <path d="M3.1 3h39.8v42H3.1z" fill="#fff" fill-rule="evenodd"/>
    </mask>
  </defs>
  <g mask="url(#a)">
    <path d="M41.28 41.77a1.63 1.63 0 0 1-1.63 1.61H15.29a1.61 1.61 0 0 1-1.63-1.61V34.5h13.81a2.44 2.44 0 0 0 2.44-2.42V20a2.44 2.44 0 0 0-2.44-2.42H13.66V6.24a1.62 1.62 0 0 1 1.63-1.62H29.9v10.5a.81.81 0 0 0 .82.8h10.56zM5.53 32.88a.81.81 0 0 1-.81-.8V20a.82.82 0 0 1 .81-.81h21.94a.81.81 0 0 1 .81.81v12.08a.79.79 0 0 1-.81.8zm26-27.7l8.83 9.13h-8.83zm11.14 9.19L31.91 3.25a.79.79 0 0 0-.58-.25h-16A3.25 3.25 0 0 0 12 6.24v11.3H5.53A2.42 2.42 0 0 0 3.1 20v12.08a2.42 2.42 0 0 0 2.43 2.42H12v7.27A3.25 3.25 0 0 0 15.29 45h24.36a3.25 3.25 0 0 0 3.25-3.23V14.93a.79.79 0 0 0-.23-.56z" fill="#1eabdf" fill-rule="evenodd"/>
  </g>
  <path d="M11.49 25.31a.79.79 0 0 1-.35.37 2.21 2.21 0 0 1-.9.12h-.62v-2.14h.55a4.36 4.36 0 0 1 .81.05.76.76 0 0 1 .46.34 1.15 1.15 0 0 1 .18.67 1.22 1.22 0 0 1-.13.59m1-2.07a1.55 1.55 0 0 0-.81-.74 4.7 4.7 0 0 0-1.35-.12H8.48v7.54h1.14v-2.84h.74a5 5 0 0 0 1.18-.08 1.45 1.45 0 0 0 .59-.36 2 2 0 0 0 .47-.74 3 3 0 0 0 .19-1.17 3 3 0 0 0-.32-1.46m6.09 4.3a1.61 1.61 0 0 1-.4.73 1.55 1.55 0 0 1-.63.31 4.29 4.29 0 0 1-.94.07h-1.17v-5h.7a7.09 7.09 0 0 1 1.28.07 1.45 1.45 0 0 1 .72.36 1.64 1.64 0 0 1 .44.73 4.24 4.24 0 0 1 .16 1.34 4.66 4.66 0 0 1-.16 1.38m1.52-3.1a3.48 3.48 0 0 0-.74-1.22 2.59 2.59 0 0 0-1.16-.69 5.51 5.51 0 0 0-1.47-.15h-2.84v7.54h2.93a4.63 4.63 0 0 0 1.37-.16 2.69 2.69 0 0 0 1.1-.6 3.23 3.23 0 0 0 .82-1.33 4.77 4.77 0 0 0 .24-1.6 5.48 5.48 0 0 0-.25-1.79m5.63-.78v-1.3h-4.3v7.54h1.27v-3.2h2.62v-1.28h-2.62v-1.78z" fill="#1eabdf" fill-rule="evenodd"/>
</svg>
