<svg xmlns="http://www.w3.org/2000/svg" xmlns:xlink="http://www.w3.org/1999/xlink" width="24" height="24" viewBox="0 0 24 24">
    <defs>
        <path id="a" d="M0 0h17v17H0z"/>
    </defs>
    <g fill="none" fill-rule="evenodd" transform="translate(4 3)">
        <mask id="b" fill="#fff">
            <use xlink:href="#a"/>
        </mask>
        <path fill="#1EABDF" d="M15.388 5.52L11.48 1.611a2.766 2.766 0 0 1 1.767-.634c.743 0 1.438.29 1.964.812.525.521.811 1.22.811 1.963a2.76 2.76 0 0 1-.634 1.768zM5.83 15.098l-1.597-1.597 8.878-8.88 1.597 1.598L5.83 15.1zm4.952-12.802l1.633 1.634-8.878 8.879-1.633-1.634 8.878-8.88zM15.899 1.1a3.749 3.749 0 0 0-5.307 0L.863 10.827a.487.487 0 0 0-.137.28l-.721 5.339a.485.485 0 0 0 .137.41c.09.09.218.144.344.144.022 0 .044 0 .066-.004l3.216-.434a.49.49 0 0 0-.13-.971l-2.58.348.504-3.724 3.92 3.92a.48.48 0 0 0 .688 0l9.729-9.728A3.73 3.73 0 0 0 17 3.752 3.715 3.715 0 0 0 15.899 1.1z" mask="url(#b)"/>
    </g>
</svg>
