<svg xmlns="http://www.w3.org/2000/svg" viewBox="0 0 48 48">
      <path fill="currentColor" d="M27.05 33.3h-6.54v-1.72a11.45 11.45 0 0 1 1.05-5.23 15.93 15.93 0 0 1 4.2-4.62 31.31 31.31 0 0 0 3.78-3.36 4.51 4.51 0 0 0 .95-2.77 4.67 4.67 0 0 0-1.7-3.6 6.55 6.55 0 0 0-4.53-1.5 6.86 6.86 0 0 0-4.6 1.57 8.36 8.36 0 0 0-2.54 4.77L10.5 16a11 11 0 0 1 3.92-7.8A13.84 13.84 0 0 1 24 5q6.21 0 9.88 3.25a9.84 9.84 0 0 1 3.62 7.55 8.31 8.31 0 0 1-1.35 4.52 29.79 29.79 0 0 1-5.76 5.8 11 11 0 0 0-2.84 3.05 10.47 10.47 0 0 0-.5 4.13zM20.51 43v-7.21h7.21V43z"/>
</svg>
