<svg xmlns="http://www.w3.org/2000/svg" viewBox="0 0 48 48">
  <defs>
    <mask id="a" x="2" y="5.42" width="44" height="37.16" maskUnits="userSpaceOnUse">
      <path d="M2 5.42h44v37.16H2z" fill="#fff" fill-rule="evenodd"/>
    </mask>
  </defs>
  <g mask="url(#a)">
    <path d="M43.07 38.71a.77.77 0 0 1-.22.54.68.68 0 0 1-.52.23H5.67a.68.68 0 0 1-.52-.23.77.77 0 0 1-.22-.54V9.29a.77.77 0 0 1 .22-.54.65.65 0 0 1 .52-.23h36.66a.68.68 0 0 1 .52.23.77.77 0 0 1 .22.54v29.42zm1.85-32.15a3.42 3.42 0 0 0-2.59-1.14H5.67a3.46 3.46 0 0 0-2.59 1.13A3.84 3.84 0 0 0 2 9.29v29.42a3.81 3.81 0 0 0 1.08 2.73 3.44 3.44 0 0 0 2.59 1.14h36.66a3.44 3.44 0 0 0 2.59-1.14A3.81 3.81 0 0 0 46 38.71V9.29a3.8 3.8 0 0 0-1.08-2.73z" fill="#1eabdf" fill-rule="evenodd"/>
  </g>
  <path d="M13.35 20.07A4.64 4.64 0 0 0 18 15.39a4.64 4.64 0 0 0-4.67-4.67 4.64 4.64 0 0 0-4.67 4.67 4.64 4.64 0 0 0 4.67 4.68m6.25 8.65L16 24.77l-7.32 7.91v4.75h32.05V26.35l-9.47-10.29z" fill="#1eabdf" fill-rule="evenodd"/>
</svg>
