<svg xmlns="http://www.w3.org/2000/svg" data-name="Layer 1" viewBox="0 0 48 48">
  <path fill="#1eabdf" fill-rule="evenodd" d="M40.43 16.19h-5.79v16.37h5.79zm-7.77 16a1.1 1.1 0 0 0-.36 0c-.31.09-7.47 2.07-7.47 8.27v5.34a4.26 4.26 0 0 1-3-.5c-.87-.61-1.31-1.78-1.31-3.46v-6.32a1 1 0 0 0-1-.94h-8.8a3.15 3.15 0 0 1-3.2-3l2.1-12.73c.27-2.1 1.67-3.16 4.17-3.16h15.68a3.12 3.12 0 0 1 3.19 3v13.45zm9.75.44V16.16a1.91 1.91 0 0 0-1.95-1.86h-5.84a2 2 0 0 0-1.61.8 5.32 5.32 0 0 0-3.54-1.35H13.84c-3.5 0-5.73 1.76-6.14 4.83L5.6 31.37a.61.61 0 0 0 0 .14 5.07 5.07 0 0 0 5.18 4.95h7.81v5.37q0 3.49 2.12 5c2.23 1.56 5.29.67 5.42.63a1 1 0 0 0 .69-.9v-6.11c0-4.75 5.78-6.38 6-6.45a.84.84 0 0 0 .33-.16 2 2 0 0 0 1.45.62h5.85a1.91 1.91 0 0 0 1.96-1.88z"/>
</svg>
