<svg xmlns="http://www.w3.org/2000/svg" width="23" height="22" viewBox="0 0 23 22">
    <g fill="none" fill-rule="evenodd">
        <path fill="#1EABDF" d="M22.216 12.437V1.794h-4.448L3.815 1.22 1.511 12.437 2.962 14.3h6.08v4.633l2.045 2.536h2.044v-5.085l3.074-3.947z"/>
        <path fill="#535353" d="M21.808 2.126h-3.48v10.31h3.48V2.127zM17.136 12.17a.66.66 0 0 0-.216.018c-.187.055-4.497 1.303-4.497 5.21v3.37c-.464.073-1.229.097-1.776-.313-.524-.386-.789-1.121-.789-2.176V14.3a.594.594 0 0 0-.596-.597H3.964a1.923 1.923 0 0 1-1.92-1.881l1.258-8.014V3.79c.163-1.327 1.005-1.996 2.51-1.996h9.404c1.06 0 1.92.862 1.92 1.924v8.453zM23 12.45V2.108c0-.651-.53-1.176-1.174-1.176h-3.51c-.403 0-.752.199-.969.506a3.107 3.107 0 0 0-2.131-.85H5.812c-2.107 0-3.45 1.11-3.69 3.04L.858 11.682c-.006.03-.006.06-.006.09a3.119 3.119 0 0 0 3.112 3.118h4.702v3.383c0 1.465.427 2.52 1.276 3.147 1.343.983 3.179.422 3.257.398a.595.595 0 0 0 .416-.567v-3.847c0-2.997 3.48-4.022 3.624-4.064a.482.482 0 0 0 .198-.102c.217.24.53.392.873.392h3.516c.65 0 1.174-.531 1.174-1.182z"/>
    </g>
</svg>
