<svg xmlns="http://www.w3.org/2000/svg" viewBox="0 0 48 48">
  <defs>
    <mask id="a" x="3" y="3.18" width="42" height="41.65" maskUnits="userSpaceOnUse">
      <path d="M3 3.18h42v41.64H3z" fill="#fff" fill-rule="evenodd"/>
    </mask>
  </defs>
  <g mask="url(#a)">
    <path d="M24.9 43v-3.67a.89.89 0 0 0-.9-.89.89.89 0 0 0-.9.89V43A19.1 19.1 0 0 1 4.85 24.89h3.69a.89.89 0 1 0 0-1.78H4.85A19.1 19.1 0 0 1 23.1 5v3.67a.9.9 0 0 0 1.8 0V5a19.1 19.1 0 0 1 18.25 18.1h-3.69a.88.88 0 0 0-.9.89.89.89 0 0 0 .9.89h3.7A19.11 19.11 0 0 1 24.9 43M24 3.18A20.82 20.82 0 1 0 45 24 20.91 20.91 0 0 0 24 3.18" fill="#1eabdf" fill-rule="evenodd"/>
  </g>
  <path d="M32.94 31.87l-8.48-8.49v-8.83a.88.88 0 0 0-.88-.88.88.88 0 0 0-.89.88v9.19a.83.83 0 0 0 .26.61l8.72 8.75a.88.88 0 0 0 1.25 0 .86.86 0 0 0 0-1.22" fill="#1eabdf" fill-rule="evenodd"/>
</svg>
