<svg xmlns="http://www.w3.org/2000/svg" viewBox="0 0 48 48">
<path fill="currentColor" fill-rule="evenodd" stroke="currentColor" stroke-width=".1" d="M36.68 42a1.77 1.77 0 0 1-1.79 1.7H13.11a1.77 1.77 0 0 1-1.79-1.7L10 8.42h28L36.68 42zM19.91 6.38h8.18v-2h-8.18zm22.09 0H30.16V4.32a2.05 2.05 0 0 0-2.05-2h-8.22a2.05 2.05 0 0 0-2.05 2v2.06H6a1 1 0 0 0-1 1 1 1 0 0 0 1 1h2l1.26 33.67a3.83 3.83 0 0 0 3.85 3.67h21.78a3.83 3.83 0 0 0 3.85-3.67l1.31-33.63H42a1 1 0 1 0 0-2z"/>
<path fill="currentColor" fill-rule="evenodd" stroke="currentColor" stroke-width=".2" d="M17.42 16c0-.6-.35-1.07-.78-1.07-.44 0-.78.51-.77 1.11l.24 17.73c0 .6.36 1.07.79 1.07.43 0 .78-.51.77-1.11zM24 15a1 1 0 0 0-.9 1v17.77a.92.92 0 1 0 1.81 0V16a1 1 0 0 0-.91-1m7.38 0c-.43 0-.79.47-.8 1.07l-.24 17.73c0 .6.33 1.1.76 1.11.42 0 .77-.47.78-1.07l.25-17.73c0-.6-.34-1.1-.77-1.11"/>
</svg>
