
<svg xmlns="http://www.w3.org/2000/svg" viewBox="0 0 48 48" fill="currentColor"><path d="M39.21 19.6a8.55 8.55 0 0 0-8-5.64 8.43 8.43 0 0 0-2.42.35 11.77 11.77 0 0 0-10-5.71A11.93 11.93 0 0 0 6.94 20.39a8.06 8.06 0 0 0-3.94 7 8 8 0 0 0 7.87 8h7.88V32.7h-7.88a5.37 5.37 0 0 1-1.19-10.57 9.14 9.14 0 0 1-.12-1.48 9.17 9.17 0 0 1 18-2.71 5.82 5.82 0 0 1 3.67-1.31A6 6 0 0 1 37.09 22a5.36 5.36 0 0 1 0 10.71h-7.84v2.68h7.87a8.05 8.05 0 0 0 2.09-15.79" fill-rule="evenodd"/><path d="M24 20.65l-6.56 8h3.94V39.4h5.24V28.69h3.94z" fill-rule="evenodd"/></svg>